#define scirun-icon-small_width 25
#define scirun-icon-small_height 25
static char scirun-icon-small_bits[] = {
 0x00,0x00,0x00,0xfe,0xfe,0x87,0xff,0xfe,0xfe,0x87,0xff,0xfe,0xfe,0x87,0xff,
 0xfe,0x04,0x00,0x01,0xfe,0xfc,0x7f,0x01,0xfe,0x04,0x40,0x01,0xfe,0x04,0xe0,
 0x7f,0xfe,0x04,0xe0,0x7f,0xfe,0x04,0xe0,0x7f,0xfe,0x04,0x40,0x00,0xfe,0xf4,
 0x7f,0x00,0xfe,0x14,0x00,0x00,0xfe,0xfe,0x07,0x00,0xfe,0xfe,0xe7,0x3c,0xfe,
 0xfe,0xb7,0x6d,0xfe,0x04,0xb0,0x6d,0xfe,0x04,0x30,0x6c,0xfe,0x04,0xe0,0x3d,
 0xfe,0xfe,0x83,0x6d,0xfe,0xfe,0xb3,0x6d,0xfe,0xfe,0xb3,0x6d,0xfe,0x00,0xe0,
 0x6c,0xfe,0x00,0x00,0x00,0xfe,0x00,0x00,0x00,0xfe};
