<?xml version="1.0" encoding="UTF-8" standalone="no"?>
<!-- Created with Inkscape (http://www.inkscape.org/) -->

<svg
   xmlns:dc="http://purl.org/dc/elements/1.1/"
   xmlns:cc="http://creativecommons.org/ns#"
   xmlns:rdf="http://www.w3.org/1999/02/22-rdf-syntax-ns#"
   xmlns:svg="http://www.w3.org/2000/svg"
   xmlns="http://www.w3.org/2000/svg"
   xmlns:sodipodi="http://sodipodi.sourceforge.net/DTD/sodipodi-0.dtd"
   xmlns:inkscape="http://www.inkscape.org/namespaces/inkscape"
   width="360"
   height="360"
   id="svg2"
   version="1.1"
   inkscape:version="0.48.2 r9819"
   sodipodi:docname="wasatch_embedded_pressure_coefs_interior.svg">
  <defs
     id="defs4">
    <marker
       inkscape:stockid="Arrow2Mstart"
       orient="auto"
       refY="0.0"
       refX="0.0"
       id="Arrow2Mstart"
       style="overflow:visible">
      <path
         id="path4042"
         style="font-size:12.0;fill-rule:evenodd;stroke-width:0.62500000;stroke-linejoin:round"
         d="M 8.7185878,4.0337352 L -2.2072895,0.016013256 L 8.7185884,-4.0017078 C 6.9730900,-1.6296469 6.9831476,1.6157441 8.7185878,4.0337352 z "
         transform="scale(0.6) translate(0,0)" />
    </marker>
    <marker
       inkscape:stockid="Arrow1Mend"
       orient="auto"
       refY="0.0"
       refX="0.0"
       id="Arrow1Mend"
       style="overflow:visible;">
      <path
         id="path4027"
         d="M 0.0,0.0 L 5.0,-5.0 L -12.5,0.0 L 5.0,5.0 L 0.0,0.0 z "
         style="fill-rule:evenodd;stroke:#000000;stroke-width:1.0pt;marker-start:none;"
         transform="scale(0.4) rotate(180) translate(10,0)" />
    </marker>
    <marker
       inkscape:stockid="Arrow1Lstart"
       orient="auto"
       refY="0.0"
       refX="0.0"
       id="Arrow1Lstart"
       style="overflow:visible">
      <path
         id="path4018"
         d="M 0.0,0.0 L 5.0,-5.0 L -12.5,0.0 L 5.0,5.0 L 0.0,0.0 z "
         style="fill-rule:evenodd;stroke:#000000;stroke-width:1.0pt;marker-start:none"
         transform="scale(0.8) translate(12.5,0)" />
    </marker>
    <marker
       inkscape:stockid="Arrow2Lend"
       orient="auto"
       refY="0.0"
       refX="0.0"
       id="Arrow2Lend"
       style="overflow:visible;">
      <path
         id="path4039"
         style="font-size:12.0;fill-rule:evenodd;stroke-width:0.62500000;stroke-linejoin:round;"
         d="M 8.7185878,4.0337352 L -2.2072895,0.016013256 L 8.7185884,-4.0017078 C 6.9730900,-1.6296469 6.9831476,1.6157441 8.7185878,4.0337352 z "
         transform="scale(1.1) rotate(180) translate(1,0)" />
    </marker>
    <marker
       inkscape:stockid="Arrow1Lend"
       orient="auto"
       refY="0.0"
       refX="0.0"
       id="Arrow1Lend"
       style="overflow:visible;">
      <path
         id="path4021"
         d="M 0.0,0.0 L 5.0,-5.0 L -12.5,0.0 L 5.0,5.0 L 0.0,0.0 z "
         style="fill-rule:evenodd;stroke:#000000;stroke-width:1.0pt;marker-start:none;"
         transform="scale(0.8) rotate(180) translate(12.5,0)" />
    </marker>
    <marker
       inkscape:stockid="Arrow2Mend"
       orient="auto"
       refY="0.0"
       refX="0.0"
       id="Arrow2Mend"
       style="overflow:visible;">
      <path
         id="path4045"
         style="font-size:12.0;fill-rule:evenodd;stroke-width:0.62500000;stroke-linejoin:round;"
         d="M 8.7185878,4.0337352 L -2.2072895,0.016013256 L 8.7185884,-4.0017078 C 6.9730900,-1.6296469 6.9831476,1.6157441 8.7185878,4.0337352 z "
         transform="scale(0.6) rotate(180) translate(0,0)" />
    </marker>
    <clipPath
       id="clipPath3462"
       clipPathUnits="userSpaceOnUse">
      <path
         id="path3464"
         d="M 0,0 148,0 148,75 0,75 0,0 z" />
    </clipPath>
    <clipPath
       id="clipPath3604"
       clipPathUnits="userSpaceOnUse">
      <path
         id="path3606"
         d="M 0,0 138,0 138,82 0,82 0,0 z" />
    </clipPath>
    <clipPath
       id="clipPath3727"
       clipPathUnits="userSpaceOnUse">
      <path
         id="path3729"
         d="m 0,0.1999512 103,0 0,25.8000498 -103,0 0,-25.8000498 z" />
    </clipPath>
    <clipPath
       id="clipPath3817"
       clipPathUnits="userSpaceOnUse">
      <path
         id="path3819"
         d="m 0,0.1999512 105,0 0,25.8000498 -105,0 0,-25.8000498 z" />
    </clipPath>
    <clipPath
       id="clipPath3907"
       clipPathUnits="userSpaceOnUse">
      <path
         id="path3909"
         d="M 0,0 263,0 263,82 0,82 0,0 z" />
    </clipPath>
    <clipPath
       id="clipPath4031"
       clipPathUnits="userSpaceOnUse">
      <path
         id="path4033"
         d="M 0,0 103,0 103,26 0,26 0,0 z" />
    </clipPath>
    <clipPath
       id="clipPath4025"
       clipPathUnits="userSpaceOnUse">
      <path
         id="path4027-3"
         d="M 0,0.2 103,0.2 103,26 0,26 0,0.2 z" />
    </clipPath>
    <clipPath
       id="clipPath4094"
       clipPathUnits="userSpaceOnUse">
      <path
         id="path4096"
         d="M 0,0 148,0 148,75 0,75 0,0 z" />
    </clipPath>
    <clipPath
       id="clipPath4169"
       clipPathUnits="userSpaceOnUse">
      <path
         id="path4171"
         d="M 0,0 138,0 138,82 0,82 0,0 z" />
    </clipPath>
    <clipPath
       id="clipPath4250"
       clipPathUnits="userSpaceOnUse">
      <path
         id="path4252"
         d="M 0,0 105,0 105,26 0,26 0,0 z" />
    </clipPath>
    <clipPath
       id="clipPath4244"
       clipPathUnits="userSpaceOnUse">
      <path
         id="path4246"
         d="M 0,0.2 105,0.2 105,26 0,26 0,0.2 z" />
    </clipPath>
  </defs>
  <sodipodi:namedview
     id="base"
     pagecolor="#ffffff"
     bordercolor="#666666"
     borderopacity="1.0"
     inkscape:pageopacity="0.0"
     inkscape:pageshadow="2"
     inkscape:zoom="2.3371448"
     inkscape:cx="126.3014"
     inkscape:cy="162.8848"
     inkscape:document-units="px"
     inkscape:current-layer="layer1"
     showgrid="false"
     units="in"
     inkscape:window-width="1627"
     inkscape:window-height="1006"
     inkscape:window-x="1744"
     inkscape:window-y="100"
     inkscape:window-maximized="0"
     inkscape:object-paths="true"
     inkscape:object-nodes="true"
     inkscape:snap-intersection-paths="true"
     inkscape:snap-smooth-nodes="true"
     inkscape:snap-midpoints="true"
     inkscape:snap-nodes="true" />
  <metadata
     id="metadata7">
    <rdf:RDF>
      <cc:Work
         rdf:about="">
        <dc:format>image/svg+xml</dc:format>
        <dc:type
           rdf:resource="http://purl.org/dc/dcmitype/StillImage" />
        <dc:title />
      </cc:Work>
    </rdf:RDF>
  </metadata>
  <g
     inkscape:label="Layer 1"
     inkscape:groupmode="layer"
     id="layer1"
     transform="translate(0,-692.35975)">
    <path
       style="fill:#61beff;fill-opacity:0.44927566;stroke:#000000;stroke-width:0.99999899px;stroke-linecap:butt;stroke-linejoin:miter;stroke-opacity:1"
       d="m 121.87445,697.98519 0,116.24989 116.24989,0 0,116.24988 116.24988,0 0,-232.49977 z"
       id="path3987"
       inkscape:connector-curvature="0" />
    <path
       d="m 5.6245713,697.98519 0,348.74971 M 121.87445,697.98519 l 0,348.74971 m 116.24989,-348.74971 0,348.74971 m 116.24988,-348.74971 0,348.74971 M 5.6245713,697.98519 l 348.7496487,0 M 5.6245713,814.23508 l 348.7496487,0 M 5.6245713,930.48496 l 348.7496487,0 M 5.6245713,1046.7349 l 348.7496487,0"
       style="fill:none;stroke:#000000;stroke-width:0.99999895pt;stroke-linecap:butt;stroke-linejoin:miter;stroke-opacity:1"
       id="path3983"
       inkscape:connector-curvature="0" />
    <path
       transform="matrix(0.99999899,0,0,0.99999899,121.24946,693.36017)"
       d="m 182,179 a 7,7 0 1 1 -14,0 7,7 0 1 1 14,0 z"
       sodipodi:ry="7"
       sodipodi:rx="7"
       sodipodi:cy="179"
       sodipodi:cx="175"
       id="path3991"
       style="fill:#ffffff;fill-opacity:1;stroke:#000000;stroke-width:0.69999999;stroke-miterlimit:4;stroke-opacity:1;stroke-dasharray:none"
       sodipodi:type="arc" />
    <path
       sodipodi:type="arc"
       style="fill:#ffffff;fill-opacity:1;stroke:#000000;stroke-width:0.69999999;stroke-miterlimit:4;stroke-opacity:1;stroke-dasharray:none"
       id="path3997"
       sodipodi:cx="175"
       sodipodi:cy="179"
       sodipodi:rx="7"
       sodipodi:ry="7"
       d="m 182,179 a 7,7 0 1 1 -14,0 7,7 0 1 1 14,0 z"
       transform="matrix(0.99999899,0,0,0.99999899,121.24946,577.11029)" />
    <path
       transform="matrix(0.99999899,0,0,0.99999899,4.9995893,577.11035)"
       d="m 182,179 a 7,7 0 1 1 -14,0 7,7 0 1 1 14,0 z"
       sodipodi:ry="7"
       sodipodi:rx="7"
       sodipodi:cy="179"
       sodipodi:cx="175"
       id="path3999"
       style="fill:#ffffff;fill-opacity:1;stroke:#000000;stroke-width:0.69999999;stroke-miterlimit:4;stroke-opacity:1;stroke-dasharray:none"
       sodipodi:type="arc" />
    <path
       transform="matrix(0.99999899,0,0,0.99999899,-111.25031,577.11029)"
       d="m 182,179 a 7,7 0 1 1 -14,0 7,7 0 1 1 14,0 z"
       sodipodi:ry="7"
       sodipodi:rx="7"
       sodipodi:cy="179"
       sodipodi:cx="175"
       id="path4001"
       style="fill:#61beff;fill-opacity:0.44927596;stroke:#000000;stroke-width:0.69999999;stroke-miterlimit:4;stroke-opacity:1;stroke-dasharray:none"
       sodipodi:type="arc" />
    <path
       sodipodi:type="arc"
       style="fill:#61beff;fill-opacity:0.44927596;stroke:#000000;stroke-width:0.69999999;stroke-miterlimit:4;stroke-opacity:1;stroke-dasharray:none"
       id="path4003"
       sodipodi:cx="175"
       sodipodi:cy="179"
       sodipodi:rx="7"
       sodipodi:ry="7"
       d="m 182,179 a 7,7 0 1 1 -14,0 7,7 0 1 1 14,0 z"
       transform="matrix(0.99999899,0,0,0.99999899,-111.25031,693.36023)" />
    <path
       transform="matrix(0.99999899,0,0,0.99999899,-111.25031,809.61017)"
       d="m 182,179 a 7,7 0 1 1 -14,0 7,7 0 1 1 14,0 z"
       sodipodi:ry="7"
       sodipodi:rx="7"
       sodipodi:cy="179"
       sodipodi:cx="175"
       id="path4005"
       style="fill:#61beff;fill-opacity:0.44927596;stroke:#000000;stroke-width:0.69999999;stroke-miterlimit:4;stroke-opacity:1;stroke-dasharray:none"
       sodipodi:type="arc" />
    <path
       sodipodi:type="arc"
       style="fill:#61beff;fill-opacity:0.44927596;stroke:#000000;stroke-width:0.69999999;stroke-miterlimit:4;stroke-opacity:1;stroke-dasharray:none"
       id="path4007"
       sodipodi:cx="175"
       sodipodi:cy="179"
       sodipodi:rx="7"
       sodipodi:ry="7"
       d="m 182,179 a 7,7 0 1 1 -14,0 7,7 0 1 1 14,0 z"
       transform="matrix(0.99999899,0,0,0.99999899,4.9995893,809.61011)" />
    <path
       transform="matrix(0.99999899,0,0,0.99999899,121.24946,809.61011)"
       d="m 182,179 a 7,7 0 1 1 -14,0 7,7 0 1 1 14,0 z"
       sodipodi:ry="7"
       sodipodi:rx="7"
       sodipodi:cy="179"
       sodipodi:cx="175"
       id="path4009"
       style="fill:#61beff;fill-opacity:0.44927596;stroke:#000000;stroke-width:0.69999999;stroke-miterlimit:4;stroke-opacity:1;stroke-dasharray:none"
       sodipodi:type="arc" />
    <path
       style="fill:none;stroke:#000000;stroke-width:1.49999845;stroke-linecap:round;stroke-linejoin:miter;stroke-miterlimit:4;stroke-opacity:1;stroke-dasharray:none;marker-mid:none;marker-end:url(#Arrow2Mend)"
       d="m 186.99939,872.36002 51.12495,0 0,0"
       id="path4013"
       inkscape:connector-curvature="0" />
    <path
       style="fill:none;stroke:#000000;stroke-width:1.49999845;stroke-linecap:butt;stroke-linejoin:miter;stroke-miterlimit:4;stroke-opacity:1;stroke-dasharray:none;marker-end:url(#Arrow2Mend)"
       d="m 179.9994,865.36002 0,-51.12494"
       id="path6905"
       inkscape:connector-curvature="0" />
    <path
       inkscape:connector-curvature="0"
       id="path7097"
       d="m 121.87445,872.36002 51.12495,0 0,0"
       style="fill:none;stroke:#000000;stroke-width:1.49999845;stroke-linecap:round;stroke-linejoin:miter;stroke-miterlimit:4;stroke-opacity:1;stroke-dasharray:none;marker-start:url(#Arrow2Mstart);marker-mid:none" />
    <path
       inkscape:connector-curvature="0"
       id="path8823"
       d="m 179.9994,930.48496 0,-51.12495"
       style="fill:none;stroke:#000000;stroke-width:1.49999845;stroke-linecap:butt;stroke-linejoin:miter;stroke-miterlimit:4;stroke-opacity:1;stroke-dasharray:none;marker-start:url(#Arrow2Mstart);marker-end:none" />
    <g
       transform="matrix(0.34261191,0,0,-0.34261191,13.235121,844.2437)"
       inkscape:label="latex-image-11"
       id="g3899">
      <g
         id="g3901" />
      <g
         id="g3903">
        <g
           clip-path="url(#clipPath3907)"
           id="g3905">
          <path
             id="path3911"
             style="fill:#000000;fill-opacity:1;fill-rule:nonzero;stroke:none"
             d="m 16.3641,37.05 c -0.5391,-0.53709 -0.7551,-0.7172 -1.0063,-1.0051 -1.0769,-1.114 -1.5437,-1.473 -1.8668,-1.473 -0.2871,0 -0.5031,0.216 -0.5031,0.4672 0,0.7187 1.509,6.8589 3.1973,13.0379 0.1078,0.3589 0.1437,0.4308 0.216,0.7531 l -0.2524,0.1078 -2.191,-0.25 -0.1078,-0.1078 -0.3949,-1.725 c -0.2871,1.3301 -1.3281,2.0828 -2.8731,2.0828 -4.74098,0 -10.269891,-6.5719 -10.269891,-12.2449 0,-2.5141 1.364061,-3.9871 3.662891,-3.9871 2.51406,0 4.05898,1.1863 7.2191,5.639 -0.7171,-2.8019 -0.825,-3.2687 -0.825,-4.1301 0,-1.0418 0.4297,-1.4726 1.436,-1.4726 1.4359,0 2.334,0.6828 4.9918,3.9519 L 16.366,37.052 16.3641,37.05 z m -5.5672,11.098 c 1.2222,-0.0718 2.0133,-0.9339 2.0133,-2.191 0,-3.0172 -1.7973,-7.255 -4.27504,-9.9121 -0.86133,-0.9699 -2.08321,-1.5808 -3.12305,-1.5808 -1.2582,0 -2.08399,1.0418 -2.08399,2.6937 0,1.941 1.36602,5.6391 2.90899,7.866 1.43789,2.0832 3.125,3.2332 4.56089,3.125"
             inkscape:connector-curvature="0" />
          <path
             id="path3913"
             style="fill:#000000;fill-opacity:1;fill-rule:nonzero;stroke:none"
             d="m 24.2,34.6441 c 0,1.1137 -0.9328,2.0481 -2.0109,2.0481 -1.077,0 -1.975,-0.8981 -1.975,-2.0481 0,-1.364 1.2199,-1.939 1.975,-1.939 0.755,0 2.0109,0.6109 2.0109,1.939"
             inkscape:connector-curvature="0" />
          <path
             id="path3915"
             style="fill:#000000;fill-opacity:1;fill-rule:nonzero;stroke:none"
             d="m 31.3109,47.609 0.82701,0 c 0,0 0.07229,0 0.1082,0.03591 0.46679,0.21599 1.39999,-0.46681 1.39999,-1.00581 0,-0.3219 -1.2922,-5.42189 -2.55,-10.1621 C 30.127,32.8852 29.2648,29.4738 29.0129,28.432 28.618,26.7801 28.1512,26.3488 26.607,26.3129 l 0,-0.575 7.3629,0 0,0.5391 c -1.6871,0 -2.298,0.323 -2.298,1.0769 0,0.5031 0.6109,3.3051 1.3281,5.9633 0.898,-0.4672 1.5449,-0.6113 2.3699,-0.6113 5.2442,0 10.77501,6.0339 10.77501,11.7441 0,2.802 -1.58011,4.4891 -4.13011,4.4891 -2.3339,0 -4.0589,-1.1481 -6.1418,-4.0582 l 1.0418,3.5921 0.1082,0.3219 c 0,0 -0.0359,0.036 -0.0718,0.1082 l -0.0723,0.036 c 0,0.0359 -0.0359,0.0359 -0.0359,0.0359 L 36.7711,48.9391 31.2398,48.15 31.3121,47.6109 31.3109,47.609 z m 9.3731,-0.2149 c 1.5449,-0.0722 2.2269,-1.00619 2.2269,-3.089 0,-2.3699 -1.041,-5.4582 -2.5859,-7.68399 -1.5078,-2.11991 -3.2309,-3.2332 -5.098,-3.2332 -1.0059,0 -1.725,0.53909 -1.725,1.32809 0,1.2219 1.2941,5.927 2.3339,8.584 0.97,2.4422 3.0532,4.202 4.8481,4.0941"
             inkscape:connector-curvature="0" />
          <path
             id="path3917"
             style="fill:#000000;fill-opacity:1;fill-rule:nonzero;stroke:none"
             d="m 77.81411,44.952 0,2.0109 -18.38711,0 0,-2.0109 18.38711,0 z m 0,-7.2911 0,2.011 -18.38711,0 0,-2.011 18.38711,0"
             inkscape:connector-curvature="0" />
          <path
             id="path3919"
             style="fill:#000000;fill-opacity:1;fill-rule:nonzero;stroke:none"
             d="m 92.22661,41.325 18.3875,0 0,2.01094 -18.3875,0 0,-2.01094 z"
             inkscape:connector-curvature="0" />
          <path
             id="path3921"
             style="fill:#000000;fill-opacity:1;fill-rule:nonzero;stroke:none"
             d="m 143.652,81.67811 -6.466,-3.26911 0,-0.50309 c 0.431,0.17999 0.827,0.32299 0.97,0.39529 0.647,0.25191 1.256,0.39491 1.616,0.39491 0.755,0 1.078,-0.5391 1.078,-1.68711 l 0,-16.2692 c 0,-1.1859 -0.287,-2.0117 -0.862,-2.3339 -0.539,-0.3231 -1.041,-0.4309 -2.55,-0.46679 l 0,-0.53911 9.913,0 0,0.53911 C 144.514,57.975 143.94,58.334 143.94,60.0578 l 0,21.5481 -0.287,0.07221"
             inkscape:connector-curvature="0" />
          <g
             transform="scale(0.1,0.1)"
             id="g3923">
            <path
               id="path3925"
               style="fill:none;stroke:#000000;stroke-width:20.08799934;stroke-linecap:butt;stroke-linejoin:miter;stroke-miterlimit:10;stroke-opacity:1;stroke-dasharray:none"
               d="m 1170.93,423.449 501.05,0"
               inkscape:connector-curvature="0" />
          </g>
          <path
             id="path3927"
             style="fill:#000000;fill-opacity:1;fill-rule:nonzero;stroke:none"
             d="m 129.455,7.84102 5.28,1.866789 0,0.574991 c -0.647,-0.0359 -0.719,-0.0359 -0.827,-0.0359 -1.292,0 -1.58,0.3953 -1.58,2.0472 l 0,20.3637 -0.18,0.0723 c -1.725,-0.611 -2.981,-0.9699 -5.28,-1.5813 l 0,-0.5726 c 0.288,0.0359 0.503,0.0359 0.791,0.0359 1.328,0 1.652,-0.359 1.652,-1.8332 l 0,-5.6019 c -1.366,1.148 -2.334,1.5441 -3.772,1.5441 -4.13,0 -7.469,-4.0582 -7.469,-9.1582 0,-4.5969 2.692,-7.72188 6.644,-7.72188 2.011,0 3.375,0.719141 4.597,2.40588 l 0,-2.29807 0.144,-0.10781 z m -0.144,4.02188 c 0,-0.25 -0.252,-0.6809 -0.611,-1.077 -0.647,-0.7187 -1.544,-1.078091 -2.586,-1.078091 -2.981,0 -4.956,2.873091 -4.956,7.290991 0,4.059 1.761,6.7172 4.489,6.7172 1.905,0 3.664,-1.689 3.664,-3.5922 l 0,-8.2609"
             inkscape:connector-curvature="0" />
          <path
             id="path3929"
             style="fill:#000000;fill-opacity:1;fill-rule:nonzero;stroke:none"
             d="m 151.238,12.1859 c -0.287,-0.323 -0.467,-0.5371 -0.791,-0.9687 -0.825,-1.0781 -1.256,-1.43712 -1.652,-1.43712 -0.539,0 -0.862,0.46682 -1.114,1.47302 -0.07,0.2879 -0.106,0.5028 -0.142,0.609 -0.898,3.6277 -1.294,5.2801 -1.294,5.8188 1.58,2.766 2.873,4.3453 3.52,4.3453 0.216,0 0.502,-0.1082 0.861,-0.2871 0.431,-0.252 0.683,-0.3219 0.97,-0.3219 0.755,0 1.256,0.5379 1.256,1.2918 0,0.7551 -0.609,1.3281 -1.472,1.3281 -1.58,0 -2.945,-1.2922 -5.423,-5.134 l -0.395,1.975 c -0.502,2.4418 -0.897,3.159 -1.867,3.159 -0.791,0 -2.011,-0.3223 -4.202,-1.041 l -0.395,-0.1441 0.144,-0.5391 c 1.364,0.323 1.688,0.3949 2.011,0.3949 0.898,0 1.114,-0.3226 1.616,-2.4777 l 1.042,-4.4172 -2.945,-4.202 c -0.717,-1.0781 -1.436,-1.72496 -1.831,-1.72496 -0.216,0 -0.575,0.1082 -0.934,0.32306 -0.466,0.2519 -0.861,0.359 -1.148,0.359 -0.683,0 -1.222,-0.5391 -1.222,-1.25589 0,-0.933991 0.719,-1.50899 1.797,-1.50899 1.113,0 1.544,0.32305 3.339,2.51408 0.97,1.15 1.725,2.1187 3.233,4.2019 l 1.077,-4.3089 c 0.467,-1.83129 0.934,-2.40629 2.084,-2.40629 1.364,0 2.298,0.86328 4.381,4.09409 l -0.503,0.2879"
             inkscape:connector-curvature="0" />
          <path
             id="path3931"
             style="fill:#000000;fill-opacity:1;fill-rule:nonzero;stroke:none"
             d="m 164.805,21.934 -0.325,0.125 c -0.928,-1.4301 -1.253,-1.6551 -2.381,-1.6551 l -5.991,0 4.211,4.4109 c 2.231,2.3313 3.208,4.2364 3.208,6.1911 0,2.5062 -2.03,4.4363 -4.636,4.4363 -1.38,0 -2.683,-0.55 -3.609,-1.5531 -0.802,-0.852 -1.178,-1.6551 -1.605,-3.434 l 0.527,-0.125 c 1.003,2.4558 1.905,3.2578 3.634,3.2578 2.105,0 3.534,-1.4277 3.534,-3.5328 0,-1.9551 -1.153,-4.286 -3.259,-6.5172 l -4.461,-4.7367 0,-0.3 9.775,0 1.378,3.434"
             inkscape:connector-curvature="0" />
          <path
             id="path3933"
             style="fill:#000000;fill-opacity:1;fill-rule:nonzero;stroke:none"
             d="m 181.727,41.325 18.3875,0 0,2.01094 -18.3875,0 0,-2.01094 z"
             inkscape:connector-curvature="0" />
          <path
             id="path3935"
             style="fill:#000000;fill-opacity:1;fill-rule:nonzero;stroke:none"
             d="m 240.152,81.67811 -6.466,-3.26911 0,-0.50309 c 0.431,0.17999 0.827,0.32299 0.97,0.39529 0.647,0.25191 1.256,0.39491 1.616,0.39491 0.755,0 1.078,-0.5391 1.078,-1.68711 l 0,-16.2692 c 0,-1.1859 -0.287,-2.0117 -0.862,-2.3339 -0.539,-0.3231 -1.041,-0.4309 -2.55,-0.46679 l 0,-0.53911 9.913,0 0,0.53911 C 241.014,57.975 240.44,58.334 240.44,60.0578 l 0,21.5481 -0.287,0.07221"
             inkscape:connector-curvature="0" />
          <g
             transform="scale(0.1,0.1)"
             id="g3937">
            <path
               id="path3939"
               style="fill:none;stroke:#000000;stroke-width:20.08799934;stroke-linecap:butt;stroke-linejoin:miter;stroke-miterlimit:10;stroke-opacity:1;stroke-dasharray:none"
               d="m 2145.56,423.449 482.04,0"
               inkscape:connector-curvature="0" />
          </g>
          <path
             id="path3941"
             style="fill:#000000;fill-opacity:1;fill-rule:nonzero;stroke:none"
             d="m 226.955,7.84102 5.28,1.866789 0,0.574991 c -0.647,-0.0359 -0.719,-0.0359 -0.827,-0.0359 -1.292,0 -1.58,0.3953 -1.58,2.0472 l 0,20.3637 -0.18,0.0723 c -1.725,-0.611 -2.981,-0.9699 -5.28,-1.5813 l 0,-0.5726 c 0.288,0.0359 0.503,0.0359 0.791,0.0359 1.328,0 1.652,-0.359 1.652,-1.8332 l 0,-5.6019 c -1.366,1.148 -2.334,1.5441 -3.772,1.5441 -4.13,0 -7.469,-4.0582 -7.469,-9.1582 0,-4.5969 2.692,-7.72188 6.644,-7.72188 2.011,0 3.375,0.719141 4.597,2.40588 l 0,-2.29807 0.144,-0.10781 z m -0.144,4.02188 c 0,-0.25 -0.252,-0.6809 -0.611,-1.077 -0.647,-0.7187 -1.544,-1.078091 -2.586,-1.078091 -2.981,0 -4.956,2.873091 -4.956,7.290991 0,4.059 1.761,6.7172 4.489,6.7172 1.905,0 3.664,-1.689 3.664,-3.5922 l 0,-8.2609"
             inkscape:connector-curvature="0" />
          <path
             id="path3943"
             style="fill:#000000;fill-opacity:1;fill-rule:nonzero;stroke:none"
             d="m 233.039,22.566 c 0.467,0.1078 0.717,0.1442 1.113,0.1442 2.047,0 2.586,-0.8981 4.239,-7.075 0.609,-2.334 1.472,-6.53637 1.472,-7.14731 0,-0.575 -0.216,-1.15 -0.755,-1.79492 -1.112,-1.47305 -1.831,-2.40586 -2.227,-2.83711 -0.755,-0.79102 -1.184,-1.07774 -1.652,-1.07774 -0.216,0 -0.467,0.10782 -0.862,0.39493 -0.539,0.43086 -0.933,0.61093 -1.328,0.61093 -0.791,0 -1.402,-0.61093 -1.402,-1.40195 0,-0.89687 0.791,-1.580077 1.833,-1.580077 2.298,0 7.003,5.387887 10.881,12.498047 2.442,4.4172 3.448,7.0031 3.448,8.7629 0,1.0781 -0.898,1.975 -1.977,1.975 -0.825,0 -1.4,-0.5367 -1.4,-1.3277 0,-0.5391 0.288,-0.934 1.006,-1.4 0.681,-0.3954 0.933,-0.7192 0.933,-1.2223 0,-1.4359 -1.328,-4.2367 -4.381,-9.302 l -0.719,4.1661 c -0.537,3.1609 -2.55,9.0859 -3.087,9.0859 l -0.144,0 c -0.036,-0.0359 -0.18,-0.0359 -0.323,-0.0359 -0.323,-0.036 -1.616,-0.25 -3.52,-0.609 -0.18,-0.036 -0.645,-0.1442 -1.148,-0.216 l 0,-0.611"
             inkscape:connector-curvature="0" />
          <path
             id="path3945"
             style="fill:#000000;fill-opacity:1;fill-rule:nonzero;stroke:none"
             d="m 260.305,21.934 -0.325,0.125 c -0.928,-1.4301 -1.253,-1.6551 -2.381,-1.6551 l -5.991,0 4.211,4.4109 c 2.231,2.3313 3.208,4.2364 3.208,6.1911 0,2.5062 -2.03,4.4363 -4.636,4.4363 -1.38,0 -2.683,-0.55 -3.609,-1.5531 -0.802,-0.852 -1.178,-1.6551 -1.605,-3.434 l 0.527,-0.125 c 1.003,2.4558 1.905,3.2578 3.634,3.2578 2.105,0 3.534,-1.4277 3.534,-3.5328 0,-1.9551 -1.153,-4.286 -3.259,-6.5172 l -4.461,-4.7367 0,-0.3 9.775,0 1.378,3.434"
             inkscape:connector-curvature="0" />
        </g>
      </g>
    </g>
    <g
       transform="matrix(0.39183419,0,0,-0.39183419,189.80568,866.75415)"
       inkscape:label="latex-image-12"
       id="g4017">
      <g
         id="g4019" />
      <g
         id="g4021">
        <g
           clip-path="url(#clipPath4025)"
           id="g4023">
          <g
             clip-path="url(#clipPath4031)"
             id="g4029">
            <path
               id="path4035"
               style="fill:#000000;fill-opacity:1;fill-rule:nonzero;stroke:none"
               d="M 16.4641,5.35 C 15.925,4.81289 15.709,4.63281 15.4578,4.34492 14.3809,3.23086 13.9141,2.87188 13.591,2.87188 c -0.2871,0 -0.5031,0.21601 -0.5031,0.46718 0,0.71875 1.509,6.85894 3.1973,13.03794 0.1078,0.3589 0.1437,0.4308 0.216,0.7531 l -0.2524,0.1078 -2.191,-0.25 -0.1078,-0.1078 -0.3949,-1.725 c -0.2871,1.3301 -1.3281,2.0828 -2.8731,2.0828 -4.74098,0 -10.269891,-6.5719 -10.269891,-12.24493 0,-2.51406 1.364061,-3.98711 3.662891,-3.98711 2.51406,0 4.05898,1.18633 7.2191,5.63906 -0.7171,-2.80195 -0.825,-3.26875 -0.825,-4.13008 0,-1.04179 0.4297,-1.47265 1.436,-1.47265 1.4359,0 2.334,0.68281 4.9918,3.95195 L 16.466,5.35195 16.4641,5.35 z m -5.5672,11.098 c 1.2222,-0.0718 2.0133,-0.9339 2.0133,-2.191 0,-3.0172 -1.7973,-7.25505 -4.27504,-9.91208 C 7.77383,3.375 6.55195,2.76406 5.51211,2.76406 c -1.2582,0 -2.08399,1.0418 -2.08399,2.69375 0,1.94102 1.36602,5.63909 2.90899,7.86599 1.43789,2.0832 3.125001,3.2332 4.56089,3.125"
               inkscape:connector-curvature="0" />
            <path
               id="path4037"
               style="fill:#000000;fill-opacity:1;fill-rule:nonzero;stroke:none"
               d="m 24.3,2.94414 c 0,1.11367 -0.9328,2.04805 -2.0109,2.04805 -1.077,0 -1.975,-0.89805 -1.975,-2.04805 0,-1.36406 1.2199,-1.93906 1.975,-1.93906 0.755,0 2.0109,0.61094 2.0109,1.93906"
               inkscape:connector-curvature="0" />
            <path
               id="path4039-2"
               style="fill:#000000;fill-opacity:1;fill-rule:nonzero;stroke:none"
               d="m 39.5578,5.31406 c -2.5859,-2.11914 -3.7,-2.69414 -5.2437,-2.69414 -2.0469,0 -3.377,1.29414 -3.377,3.2332 0,0.53907 0.0719,1.07774 0.359,2.22696 l 1.0059,0.14375 c 5.3859,0.75508 9.19411,3.48397 9.19411,6.57227 0,1.509 -1.07811,2.4418 -2.87311,2.4418 -5.1718,0 -10.8089,-5.925 -10.8089,-11.31173 0,-2.90898 1.939,-4.92031 4.741,-4.92031 2.55,0 5.314,1.47305 7.4328,3.88008 l -0.4301,0.43008 0,-0.00196 z M 32.159,10.45 c 1.2199,3.1969 3.8781,5.9629 5.709,5.9629 0.755,0 1.2582,-0.575 1.2582,-1.402 0,-1.1121 -0.6832,-2.4058 -1.7953,-3.4828 C 36.0012,10.2699 34.6371,9.625 31.548,8.86992 L 32.159,10.45"
               inkscape:connector-curvature="0" />
            <path
               id="path4041"
               style="fill:#000000;fill-opacity:1;fill-rule:nonzero;stroke:none"
               d="m 73.2141,13.252 0,2.0109 -18.3871,0 0,-2.0109 18.3871,0 z m 0,-7.29106 0,2.010939 -18.3871,0 0,-2.010939 18.3871,0"
               inkscape:connector-curvature="0" />
            <path
               id="path4043"
               style="fill:#000000;fill-opacity:1;fill-rule:nonzero;stroke:none"
               d="m 94.5219,25.6781 c -1.97499,0 -3.48279,-0.6109 -4.81169,-1.8672 C 87.627,21.8 86.2629,17.6691 86.2629,13.4672 c 0,-3.91408 1.18401,-8.1172 2.87231,-10.12814 1.3296,-1.58008 3.16089,-2.442185 5.2437,-2.442185 1.83319,0 3.377,0.610935 4.66909,1.867185 2.083,1.97696 3.448,6.1418 3.448,10.48794 0,7.3628 -3.269,12.4269 -7.973,12.4269 l -0.0011,-8e-4 z m -0.10779,-0.934 c 3.01679,0 4.6328,-4.0582 4.6328,-11.564 0,-7.50627 -1.5797,-11.34807 -4.6688,-11.34807 -3.08711,0 -4.66911,3.8418 -4.66911,11.31287 0,7.6141 1.6172,11.6 4.70511,11.6"
               inkscape:connector-curvature="0" />
          </g>
        </g>
      </g>
    </g>
    <g
       transform="matrix(0.33855179,0,0,-0.33855179,125.89374,900.7514)"
       inkscape:label="latex-image-13"
       id="g4086">
      <g
         id="g4088" />
      <g
         id="g4090">
        <g
           clip-path="url(#clipPath4094)"
           id="g4092">
          <path
             id="path4098"
             style="fill:#000000;fill-opacity:1;fill-rule:nonzero;stroke:none"
             d="m 16.3641,30.05 c -0.5391,-0.5371 -0.7551,-0.7172 -1.0063,-1.0051 -1.0769,-1.114 -1.5437,-1.473 -1.8668,-1.473 -0.2871,0 -0.5031,0.216 -0.5031,0.4672 0,0.7187 1.509,6.8589 3.1973,13.0379 0.1078,0.3589 0.1437,0.4308 0.216,0.7531 l -0.2524,0.1078 -2.191,-0.25 -0.1078,-0.1078 -0.3949,-1.725 c -0.2871,1.3301 -1.3281,2.0828 -2.8731,2.0828 -4.74098,0 -10.269891,-6.5719 -10.269891,-12.2449 0,-2.5141 1.364061,-3.9871 3.662891,-3.9871 2.51406,0 4.05898,1.1863 7.2191,5.639 -0.7171,-2.8019 -0.825,-3.2687 -0.825,-4.1301 0,-1.0418 0.4297,-1.4726 1.436,-1.4726 1.4359,0 2.334,0.6828 4.9918,3.9519 L 16.366,30.052 16.3641,30.05 z m -5.5672,11.098 c 1.2222,-0.0718 2.0133,-0.9339 2.0133,-2.191 0,-3.0172 -1.7973,-7.255 -4.27504,-9.9121 -0.86133,-0.9699 -2.08321,-1.5808 -3.12305,-1.5808 -1.2582,0 -2.08399,1.0418 -2.08399,2.6937 0,1.941 1.36602,5.6391 2.90899,7.866 1.43789,2.0832 3.125,3.2332 4.56089,3.125"
             inkscape:connector-curvature="0" />
          <path
             id="path4100"
             style="fill:#000000;fill-opacity:1;fill-rule:nonzero;stroke:none"
             d="m 24.1,27.6441 c 0,1.1137 -0.9328,2.0481 -2.0109,2.0481 -1.077,0 -1.975,-0.8981 -1.975,-2.0481 0,-1.364 1.2199,-1.939 1.975,-1.939 0.755,0 2.0109,0.6109 2.0109,1.939"
             inkscape:connector-curvature="0" />
          <path
             id="path4102"
             style="fill:#000000;fill-opacity:1;fill-rule:nonzero;stroke:none"
             d="m 27.175,40.609 0.7172,0 c 0.0359,0 0.1437,0 0.3226,0.0359 1.0063,0.07231 1.3661,-0.2871 1.6172,-1.6519 0.4301,-2.0481 0.861,-5.85509 0.9692,-8.6918 l 0.1437,-3.159 c 0.0723,-1.4024 0.1442,-1.6891 0.4672,-1.6891 0.3949,0 1.0059,0.8981 2.2981,3.377 0.1796,0.3949 0.8976,1.6519 1.975,3.5551 l 3.1968,5.6027 1.041,-11.4559 c 0.0719,-0.9699 0.1442,-1.0781 0.395,-1.0781 0.2879,0 0.6468,0.359 1.6172,1.5449 0.0359,0.0364 0.1796,0.216 0.3218,0.3942 4.884,5.855 7.61411,10.38 7.61411,12.6781 0,1.0777 -0.78911,1.8668 -1.86721,1.8668 -0.8617,0 -1.4,-0.466 -1.4,-1.2199 0,-0.4668 0.1801,-0.7551 0.7531,-1.2942 0.575,-0.5367 0.791,-0.8968 0.791,-1.3277 0,-1.5441 -1.2199,-3.484 -5.925,-9.3371 l -1.15,12.6422 c 0,0.3937 -0.0718,0.5019 -0.2871,0.5019 -0.18,0 -0.2871,-0.0722 -0.4668,-0.3582 L 33.4238,30.6262 c -0.1078,2.5136 -0.5027,6.28591 -0.8968,8.7976 -0.395,2.2282 -0.4668,2.5141 -0.8981,2.5141 -0.216,0 -0.6109,-0.1078 -1.0777,-0.25 -0.3942,-0.1438 -1.2563,-0.2867 -2.4422,-0.4668 -0.1442,0 -0.502,-0.0723 -0.9328,-0.1441 l 0,-0.4668"
             inkscape:connector-curvature="0" />
          <path
             id="path4104"
             style="fill:#000000;fill-opacity:1;fill-rule:nonzero;stroke:none"
             d="m 81.01411,37.952 0,2.0109 -18.38711,0 0,-2.0109 18.38711,0 z m 0,-7.2911 0,2.011 -18.38711,0 0,-2.011 18.38711,0"
             inkscape:connector-curvature="0" />
          <path
             id="path4106"
             style="fill:#000000;fill-opacity:1;fill-rule:nonzero;stroke:none"
             d="m 124.052,74.6781 -6.466,-3.2691 0,-0.50309 c 0.431,0.17999 0.827,0.32299 0.97,0.39529 0.647,0.2519 1.256,0.39491 1.616,0.39491 0.755,0 1.078,-0.5391 1.078,-1.68711 l 0,-16.2692 c 0,-1.1859 -0.287,-2.0117 -0.862,-2.3339 -0.539,-0.32309 -1.041,-0.4309 -2.55,-0.4668 l 0,-0.5391 9.913,0 0,0.5391 c -2.837,0.0359 -3.411,0.3949 -3.411,2.1187 l 0,21.5481 -0.287,0.0722"
             inkscape:connector-curvature="0" />
          <g
             transform="scale(0.1,0.1)"
             id="g4108">
            <path
               id="path4110"
               style="fill:none;stroke:#000000;stroke-width:20.08799934;stroke-linecap:butt;stroke-linejoin:miter;stroke-miterlimit:10;stroke-opacity:1;stroke-dasharray:none"
               d="m 975.199,353.441 501.051,0"
               inkscape:connector-curvature="0" />
          </g>
          <path
             id="path4112"
             style="fill:#000000;fill-opacity:1;fill-rule:nonzero;stroke:none"
             d="m 109.855,0.841016 5.28,1.866794 0,0.575 c -0.647,-0.03593 -0.719,-0.03593 -0.827,-0.03593 -1.292,0 -1.58,0.39531 -1.58,2.04726 l 0,20.36366 -0.18,0.0723 c -1.725,-0.611 -2.981,-0.9699 -5.28,-1.5813 l 0,-0.5726 c 0.288,0.0359 0.503,0.0359 0.791,0.0359 1.328,0 1.652,-0.359 1.652,-1.8332 l 0,-5.6019 c -1.366,1.148 -2.334,1.5441 -3.772,1.5441 -4.13,0 -7.4691,-4.0582 -7.4691,-9.15821 0,-4.59687 2.6921,-7.721874 6.6441,-7.721874 2.011,0 3.375,0.719144 4.597,2.405864 l 0,-2.2980521 0.144,-0.1078119 z m -0.144,4.021874 c 0,-0.25 -0.252,-0.68086 -0.611,-1.07695 -0.647,-0.71875 -1.544,-1.07813 -2.586,-1.07813 -2.981,0 -4.956,2.87305 -4.956,7.29102 0,4.05897 1.761,6.71717 4.489,6.71717 1.905,0 3.664,-1.689 3.664,-3.5922 l 0,-8.26091"
             inkscape:connector-curvature="0" />
          <path
             id="path4114"
             style="fill:#000000;fill-opacity:1;fill-rule:nonzero;stroke:none"
             d="m 131.638,5.18594 c -0.287,-0.32305 -0.467,-0.53711 -0.791,-0.96875 -0.825,-1.07813 -1.256,-1.43711 -1.652,-1.43711 -0.539,0 -0.862,0.4668 -1.114,1.47304 -0.07,0.2879 -0.106,0.50274 -0.142,0.60899 -0.898,3.627731 -1.294,5.28009 -1.294,5.81879 1.58,2.766 2.873,4.3453 3.52,4.3453 0.216,0 0.502,-0.1082 0.861,-0.2871 0.431,-0.252 0.683,-0.3219 0.97,-0.3219 0.755,0 1.256,0.5379 1.256,1.2918 0,0.7551 -0.609,1.3281 -1.472,1.3281 -1.58,0 -2.945,-1.2922 -5.423,-5.134 l -0.395,1.975 c -0.502,2.4418 -0.897,3.159 -1.867,3.159 -0.791,0 -2.011,-0.3223 -4.202,-1.041 l -0.395,-0.1441 0.144,-0.5391 c 1.364,0.323 1.688,0.3949 2.011,0.3949 0.898,0 1.114,-0.3226 1.616,-2.4777 l 1.042,-4.41721 -2.945,-4.20195 c -0.717,-1.07813 -1.436,-1.725 -1.831,-1.725 -0.216,0 -0.575,0.1082 -0.934,0.32304 -0.466,0.25196 -0.861,0.35899 -1.148,0.35899 -0.683,0 -1.222,-0.53906 -1.222,-1.25586 0,-0.93399 0.719,-1.508985 1.797,-1.508985 1.113,0 1.544,0.323045 3.339,2.514065 0.97,1.15 1.725,2.11875 3.233,4.20195 l 1.077,-4.30898 c 0.467,-1.83125 0.934,-2.406254 2.084,-2.406254 1.364,0 2.298,0.863284 4.381,4.094144 l -0.503,0.28789"
             inkscape:connector-curvature="0" />
          <path
             id="path4116"
             style="fill:#000000;fill-opacity:1;fill-rule:nonzero;stroke:none"
             d="m 145.205,14.934 -0.325,0.125 c -0.928,-1.4301 -1.253,-1.6551 -2.381,-1.6551 l -5.991,0 4.211,4.4109 c 2.231,2.3313 3.208,4.2364 3.208,6.1911 0,2.5062 -2.03,4.4363 -4.636,4.4363 -1.38,0 -2.683,-0.55 -3.609,-1.5531 -0.802,-0.852 -1.178,-1.6551 -1.605,-3.434 l 0.527,-0.125 c 1.003,2.4558 1.905,3.2578 3.634,3.2578 2.105,0 3.534,-1.4277 3.534,-3.5328 0,-1.9551 -1.153,-4.286 -3.259,-6.5172 l -4.461,-4.7367 0,-0.3 9.775,0 1.378,3.434"
             inkscape:connector-curvature="0" />
        </g>
      </g>
    </g>
    <g
       transform="matrix(0,0.36261342,0.36261342,0,182.82756,876.36002)"
       inkscape:label="latex-image-15"
       id="g4161">
      <g
         id="g4163" />
      <g
         id="g4165">
        <g
           clip-path="url(#clipPath4169)"
           id="g4167">
          <path
             id="path4173"
             style="fill:#000000;fill-opacity:1;fill-rule:nonzero;stroke:none"
             d="m 16.1641,37.05 c -0.5391,-0.53709 -0.7551,-0.7172 -1.0063,-1.0051 -1.0769,-1.114 -1.5437,-1.473 -1.8668,-1.473 -0.2871,0 -0.5031,0.216 -0.5031,0.4672 0,0.7187 1.509,6.8589 3.1973,13.0379 0.1078,0.3589 0.1437,0.4308 0.216,0.7531 l -0.2524,0.1078 -2.191,-0.25 -0.1078,-0.1078 -0.3949,-1.725 c -0.2871,1.3301 -1.3281,2.0828 -2.8731,2.0828 -4.74098,0 -10.269891,-6.5719 -10.269891,-12.2449 0,-2.5141 1.364061,-3.9871 3.662891,-3.9871 2.51406,0 4.05898,1.1863 7.2191,5.639 -0.7171,-2.8019 -0.825,-3.2687 -0.825,-4.1301 0,-1.0418 0.4297,-1.4726 1.436,-1.4726 1.4359,0 2.334,0.6828 4.9918,3.9519 L 16.166,37.052 16.1641,37.05 z m -5.5672,11.098 c 1.2222,-0.0718 2.0133,-0.9339 2.0133,-2.191 0,-3.0172 -1.7973,-7.255 -4.27504,-9.9121 -0.86133,-0.9699 -2.08321,-1.5808 -3.12305,-1.5808 -1.2582,0 -2.08399,1.0418 -2.08399,2.6937 0,1.941 1.36602,5.6391 2.90899,7.866 1.43789,2.0832 3.125,3.2332 4.56089,3.125"
             inkscape:connector-curvature="0" />
          <path
             id="path4175"
             style="fill:#000000;fill-opacity:1;fill-rule:nonzero;stroke:none"
             d="m 23.9,34.6441 c 0,1.1137 -0.9328,2.0481 -2.0109,2.0481 -1.077,0 -1.975,-0.8981 -1.975,-2.0481 0,-1.364 1.2199,-1.939 1.975,-1.939 0.755,0 2.0109,0.6109 2.0109,1.939"
             inkscape:connector-curvature="0" />
          <path
             id="path4177"
             style="fill:#000000;fill-opacity:1;fill-rule:nonzero;stroke:none"
             d="m 29.4922,38.3441 -0.7172,-5.7113 0.575,0 c 0.2859,0.575 0.502,0.75511 0.8609,0.75511 0.395,0 1.0422,-0.14381 1.759,-0.32311 0.791,-0.2519 1.402,-0.3589 1.977,-0.3589 3.016,0 5.1703,1.939 5.1703,4.6691 0,1.366 -0.7531,2.9449 -2.4422,5.0281 -1.3641,1.6879 -1.9391,2.802 -1.9391,3.7719 0,1.184 0.7551,1.9391 2.011,1.9391 1.8691,0 2.9453,-1.3301 3.3051,-4.1313 l 0.575,0 0.7191,4.9922 -0.5031,0 c -0.2871,-0.502 -0.575,-0.6449 -1.0782,-0.6449 -0.25189,0 -0.6109,0.0719 -1.2918,0.2519 -0.898,0.286 -1.4371,0.3578 -2.0109,0.3578 -2.6223,0 -4.3473,-1.5437 -4.3473,-3.95 0,-1.14759 0.7551,-2.6937 2.2633,-4.6328 1.402,-1.8308 2.0129,-3.089 2.0129,-4.13 0,-1.6168 -1.0781,-2.7661 -2.6582,-2.7661 -1.975,0 -3.0887,1.4719 -3.6637,4.884 l -0.575,0"
             inkscape:connector-curvature="0" />
          <path
             id="path4179"
             style="fill:#000000;fill-opacity:1;fill-rule:nonzero;stroke:none"
             d="m 72.7141,44.952 0,2.0109 -18.3871,0 0,-2.0109 18.3871,0 z m 0,-7.2911 0,2.011 -18.3871,0 0,-2.011 18.3871,0"
             inkscape:connector-curvature="0" />
          <path
             id="path4181"
             style="fill:#000000;fill-opacity:1;fill-rule:nonzero;stroke:none"
             d="m 114.752,81.67811 -6.466,-3.26911 0,-0.50309 c 0.431,0.17999 0.827,0.32299 0.97,0.39529 0.647,0.25191 1.256,0.39491 1.616,0.39491 0.755,0 1.078,-0.5391 1.078,-1.68711 l 0,-16.2692 c 0,-1.1859 -0.287,-2.0117 -0.862,-2.3339 -0.539,-0.3231 -1.041,-0.4309 -2.55,-0.46679 l 0,-0.53911 9.913,0 0,0.53911 C 115.614,57.975 115.04,58.334 115.04,60.0578 l 0,21.5481 -0.287,0.07221"
             inkscape:connector-curvature="0" />
          <g
             transform="scale(0.1,0.1)"
             id="g4183">
            <path
               id="path4185"
               style="fill:none;stroke:#000000;stroke-width:20.08799934;stroke-linecap:butt;stroke-linejoin:miter;stroke-miterlimit:10;stroke-opacity:1;stroke-dasharray:none"
               d="m 891.809,423.449 482.041,0"
               inkscape:connector-curvature="0" />
          </g>
          <path
             id="path4187"
             style="fill:#000000;fill-opacity:1;fill-rule:nonzero;stroke:none"
             d="m 101.555,7.84102 5.28,1.866789 0,0.574991 c -0.647,-0.0359 -0.719,-0.0359 -0.827,-0.0359 -1.292,0 -1.58,0.3953 -1.58,2.0472 l 0,20.3637 -0.18,0.0723 c -1.725,-0.611 -2.981,-0.9699 -5.28,-1.5813 l 0,-0.5726 c 0.28791,0.0359 0.50311,0.0359 0.791,0.0359 1.328,0 1.652,-0.359 1.652,-1.8332 l 0,-5.6019 c -1.366,1.148 -2.334,1.5441 -3.77189,1.5441 -4.13011,0 -7.4692,-4.0582 -7.4692,-9.1582 0,-4.5969 2.6922,-7.72188 6.6442,-7.72188 2.01089,0 3.37489,0.719141 4.59689,2.40588 l 0,-2.29807 0.144,-0.10781 z m -0.144,4.02188 c 0,-0.25 -0.252,-0.6809 -0.611,-1.077 -0.647,-0.7187 -1.54409,-1.078091 -2.5859,-1.078091 -2.98129,0 -4.9563,2.873091 -4.9563,7.290991 0,4.059 1.7613,6.7172 4.48911,6.7172 1.90509,0 3.66409,-1.689 3.66409,-3.5922 l 0,-8.2609"
             inkscape:connector-curvature="0" />
          <path
             id="path4189"
             style="fill:#000000;fill-opacity:1;fill-rule:nonzero;stroke:none"
             d="m 107.639,22.566 c 0.467,0.1078 0.717,0.1442 1.113,0.1442 2.047,0 2.586,-0.8981 4.239,-7.075 0.609,-2.334 1.472,-6.53637 1.472,-7.14731 0,-0.575 -0.216,-1.15 -0.755,-1.79492 -1.112,-1.47305 -1.831,-2.40586 -2.227,-2.83711 -0.755,-0.79102 -1.184,-1.07774 -1.652,-1.07774 -0.216,0 -0.467,0.10782 -0.862,0.39493 -0.539,0.43086 -0.933,0.61093 -1.328,0.61093 -0.791,0 -1.402,-0.61093 -1.402,-1.40195 0,-0.89687 0.791,-1.580077 1.833,-1.580077 2.298,0 7.003,5.387887 10.881,12.498047 2.442,4.4172 3.448,7.0031 3.448,8.7629 0,1.0781 -0.898,1.975 -1.977,1.975 -0.825,0 -1.4,-0.5367 -1.4,-1.3277 0,-0.5391 0.288,-0.934 1.006,-1.4 0.681,-0.3954 0.933,-0.7192 0.933,-1.2223 0,-1.4359 -1.328,-4.2367 -4.381,-9.302 l -0.719,4.1661 c -0.537,3.1609 -2.55,9.0859 -3.087,9.0859 l -0.144,0 c -0.036,-0.0359 -0.18,-0.0359 -0.323,-0.0359 -0.323,-0.036 -1.616,-0.25 -3.52,-0.609 -0.18,-0.036 -0.645,-0.1442 -1.148,-0.216 l 0,-0.611"
             inkscape:connector-curvature="0" />
          <path
             id="path4191"
             style="fill:#000000;fill-opacity:1;fill-rule:nonzero;stroke:none"
             d="m 134.905,21.934 -0.325,0.125 c -0.928,-1.4301 -1.253,-1.6551 -2.381,-1.6551 l -5.991,0 4.211,4.4109 c 2.231,2.3313 3.208,4.2364 3.208,6.1911 0,2.5062 -2.03,4.4363 -4.636,4.4363 -1.38,0 -2.683,-0.55 -3.609,-1.5531 -0.802,-0.852 -1.178,-1.6551 -1.605,-3.434 l 0.527,-0.125 c 1.003,2.4558 1.905,3.2578 3.634,3.2578 2.105,0 3.534,-1.4277 3.534,-3.5328 0,-1.9551 -1.153,-4.286 -3.259,-6.5172 l -4.461,-4.7367 0,-0.3 9.775,0 1.378,3.434"
             inkscape:connector-curvature="0" />
        </g>
      </g>
    </g>
    <g
       transform="matrix(0,-0.38430539,-0.38430539,0,174.34407,857.27401)"
       inkscape:label="latex-image-16"
       id="g4236">
      <g
         id="g4238" />
      <g
         id="g4240">
        <g
           clip-path="url(#clipPath4244)"
           id="g4242">
          <g
             clip-path="url(#clipPath4250)"
             id="g4248">
            <path
               id="path4254"
               style="fill:#000000;fill-opacity:1;fill-rule:nonzero;stroke:none"
               d="M 16.4641,5.35 C 15.925,4.81289 15.709,4.63281 15.4578,4.34492 14.3809,3.23086 13.9141,2.87188 13.591,2.87188 c -0.2871,0 -0.5031,0.21601 -0.5031,0.46718 0,0.71875 1.509,6.85894 3.1973,13.03794 0.1078,0.3589 0.1437,0.4308 0.216,0.7531 l -0.2524,0.1078 -2.191,-0.25 -0.1078,-0.1078 -0.3949,-1.725 c -0.2871,1.3301 -1.3281,2.0828 -2.8731,2.0828 -4.74098,0 -10.269891,-6.5719 -10.269891,-12.24493 0,-2.51406 1.364061,-3.98711 3.662891,-3.98711 2.51406,0 4.05898,1.18633 7.2191,5.63906 -0.7171,-2.80195 -0.825,-3.26875 -0.825,-4.13008 0,-1.04179 0.4297,-1.47265 1.436,-1.47265 1.4359,0 2.334,0.68281 4.9918,3.95195 L 16.466,5.35195 16.4641,5.35 z m -5.5672,11.098 c 1.2222,-0.0718 2.0133,-0.9339 2.0133,-2.191 0,-3.0172 -1.7973,-7.25505 -4.27504,-9.91208 C 7.77383,3.375 6.55195,2.76406 5.51211,2.76406 c -1.2582,0 -2.08399,1.0418 -2.08399,2.69375 0,1.94102 1.36602,5.63909 2.90899,7.86599 1.43789,2.0832 3.125001,3.2332 4.56089,3.125"
               inkscape:connector-curvature="0" />
            <path
               id="path4256"
               style="fill:#000000;fill-opacity:1;fill-rule:nonzero;stroke:none"
               d="m 24.3,2.94414 c 0,1.11367 -0.9328,2.04805 -2.0109,2.04805 -1.077,0 -1.975,-0.89805 -1.975,-2.04805 0,-1.36406 1.2199,-1.93906 1.975,-1.93906 0.755,0 2.0109,0.61094 2.0109,1.93906"
               inkscape:connector-curvature="0" />
            <path
               id="path4258"
               style="fill:#000000;fill-opacity:1;fill-rule:nonzero;stroke:none"
               d="M 43.21991,5.60195 42.4648,4.66914 c -1.041,-1.33008 -1.6867,-1.90508 -2.191,-1.90508 -0.2867,0 -0.5726,0.28789 -0.5726,0.575 0,0.25196 0,0.25196 0.5019,2.26289 L 42.2512,13 c 0.17771,0.7551 0.3218,1.5449 0.3218,2.0469 0,1.2941 -0.9691,2.191 -2.3699,2.191 -2.298,0 -4.5609,-2.1551 -8.259,-7.90001 L 34.35,17.166 34.2422,17.2379 C 32.3031,16.8441 31.548,16.7012 28.423,16.1262 l 0,-0.575 c 1.8329,-0.0364 2.2981,-0.2524 2.2981,-0.9692 0,-0.216 -0.0359,-0.4308 -0.0723,-0.6109 L 27.202,1.40117 l 2.6941,0 c 1.6879,5.674999 2.0109,6.46367 3.591,8.90583 2.1551,3.3051 3.9879,5.1 5.316,5.1 0.53911,0 0.8629,-0.3949 0.8629,-1.041 0,-0.4308 -0.216,-1.6172 -0.5031,-2.7301 L 37.582,5.70898 C 37.116,3.87812 37.009,3.375 37.009,3.01484 c 0,-1.36367 0.5031,-1.93867 1.6879,-1.93867 1.616,0 2.55,0.75469 5.0281,4.05781 l -0.5031,0.46719"
               inkscape:connector-curvature="0" />
            <path
               id="path4260"
               style="fill:#000000;fill-opacity:1;fill-rule:nonzero;stroke:none"
               d="m 75.2141,13.252 0,2.0109 -18.3871,0 0,-2.0109 18.3871,0 z m 0,-7.29106 0,2.010939 -18.3871,0 0,-2.010939 18.3871,0"
               inkscape:connector-curvature="0" />
            <path
               id="path4262"
               style="fill:#000000;fill-opacity:1;fill-rule:nonzero;stroke:none"
               d="m 96.5219,25.6781 c -1.97499,0 -3.48279,-0.6109 -4.81169,-1.8672 C 89.627,21.8 88.2629,17.6691 88.2629,13.4672 c 0,-3.91408 1.18401,-8.1172 2.87231,-10.12814 1.3296,-1.58008 3.16089,-2.442185 5.2437,-2.442185 1.83319,0 3.377,0.610935 4.66909,1.867185 2.083,1.97696 3.448,6.1418 3.448,10.48794 0,7.3628 -3.269,12.4269 -7.973,12.4269 l -0.0011,-8e-4 z m -0.10779,-0.934 c 3.01679,0 4.63289,-4.0582 4.63289,-11.564 0,-7.50627 -1.57979,-11.34807 -4.66889,-11.34807 -3.08711,0 -4.66911,3.8418 -4.66911,11.31287 0,7.6141 1.6172,11.6 4.70511,11.6"
               inkscape:connector-curvature="0" />
          </g>
        </g>
      </g>
    </g>
    <path
       style="fill:none;stroke:#000000;stroke-width:0.93606973px;stroke-linecap:butt;stroke-linejoin:miter;stroke-opacity:1;marker-end:url(#Arrow2Mend)"
       d="m 176.98718,870.4544 c 0,0 -29.55025,-3.45991 -41.75039,-9.99151 -13.76877,-7.37141 -29.45586,-26.17278 -29.45586,-26.17278"
       id="path4278"
       inkscape:connector-curvature="0"
       sodipodi:nodetypes="csc" />
    <path
       sodipodi:type="arc"
       style="fill:#61beff;fill-opacity:1;stroke:#000000;stroke-width:0.69999999;stroke-miterlimit:4;stroke-opacity:1;stroke-dasharray:none"
       id="path3989"
       sodipodi:cx="175"
       sodipodi:cy="179"
       sodipodi:rx="7"
       sodipodi:ry="7"
       d="m 182,179 a 7,7 0 1 1 -14,0 7,7 0 1 1 14,0 z"
       transform="matrix(0.99999899,0,0,0.99999899,4.9995664,693.36023)" />
  </g>
</svg>
