<?xml version="1.0" encoding="UTF-8" standalone="no"?>
<!-- Created with Inkscape (http://www.inkscape.org/) -->

<svg
   xmlns:dc="http://purl.org/dc/elements/1.1/"
   xmlns:cc="http://creativecommons.org/ns#"
   xmlns:rdf="http://www.w3.org/1999/02/22-rdf-syntax-ns#"
   xmlns:svg="http://www.w3.org/2000/svg"
   xmlns="http://www.w3.org/2000/svg"
   xmlns:sodipodi="http://sodipodi.sourceforge.net/DTD/sodipodi-0.dtd"
   xmlns:inkscape="http://www.inkscape.org/namespaces/inkscape"
   width="360"
   height="360"
   id="svg2"
   version="1.1"
   inkscape:version="0.48.2 r9819"
   sodipodi:docname="wasatch_embedded_cylinder_cut_cell_approach.svg">
  <defs
     id="defs4" />
  <sodipodi:namedview
     id="base"
     pagecolor="#ffffff"
     bordercolor="#666666"
     borderopacity="1.0"
     inkscape:pageopacity="0.0"
     inkscape:pageshadow="2"
     inkscape:zoom="1"
     inkscape:cx="269.5"
     inkscape:cy="229.7493"
     inkscape:document-units="px"
     inkscape:current-layer="layer1"
     showgrid="false"
     units="in"
     inkscape:window-width="1626"
     inkscape:window-height="1006"
     inkscape:window-x="0"
     inkscape:window-y="0"
     inkscape:window-maximized="0" />
  <metadata
     id="metadata7">
    <rdf:RDF>
      <cc:Work
         rdf:about="">
        <dc:format>image/svg+xml</dc:format>
        <dc:type
           rdf:resource="http://purl.org/dc/dcmitype/StillImage" />
      </cc:Work>
    </rdf:RDF>
  </metadata>
  <g
     inkscape:label="Layer 1"
     inkscape:groupmode="layer"
     id="layer1"
     transform="translate(0,-692.35975)">
    <path
       sodipodi:type="arc"
       style="fill:#61beff;fill-opacity:0.4492759;stroke:#000000;stroke-width:0.69184893;stroke-miterlimit:4;stroke-opacity:1;stroke-dasharray:none"
       id="path3791"
       sodipodi:cx="-38.5"
       sodipodi:cy="218"
       sodipodi:rx="72.5"
       sodipodi:ry="72.5"
       d="m 34,218 a 72.5,72.5 0 1 1 -145,0 72.5,72.5 0 1 1 145,0 z"
       transform="matrix(1.7344828,0,0,1.7344828,246.77759,494.2425)" />
    <path
       d="m 443.375,-763.98475 0,361.25 m 51,-361.25 0,361.25 m 51,-361.25 0,361.25 m 51,-361.25 0,361.25 m 51,-361.25 0,361.25 m 51,-361.25 0,361.25 m 51,-361.25 0,361.25 m 51,-361.25 0,361.25 m -357,-361.25 361.25,0 m -361.25,51 361.25,0 m -361.25,51 361.25,0 m -361.25,51 361.25,0 m -361.25,51 361.25,0 m -361.25,51 361.25,0 m -361.25,51 361.25,0 m -361.25,51 361.25,0"
       style="fill:none;fill-opacity:0.75000000;fill-rule:evenodd;stroke:#000000;stroke-linecap:butt;stroke-linejoin:miter;stroke-opacity:1.0000000;stroke-width:1pt"
       id="path3820" />
    <path
       d="m 18.125,710.48475 0,323.75005 m 35.972222,-323.75005 0,323.75005 m 35.972223,-323.75005 0,323.75005 m 35.972225,-323.75005 0,323.75005 m 35.97222,-323.75005 0,323.75005 m 35.97222,-323.75005 0,323.75005 m 35.97222,-323.75005 0,323.75005 m 35.97223,-323.75005 0,323.75005 m 35.97222,-323.75005 0,323.75005 m 35.97222,-323.75005 0,323.75005 m -323.75,-323.75005 323.75,0 m -323.75,35.97222 323.75,0 m -323.75,35.97223 323.75,0 m -323.75,35.97222 323.75,0 m -323.75,35.97222 323.75,0 m -323.75,35.97222 323.75,0 m -323.75,35.97223 323.75,0 m -323.75,35.97222 323.75,0 m -323.75,35.97222 323.75,0 m -323.75,35.97227 323.75,0"
       style="fill:none;stroke:#000000;stroke-width:0.7;stroke-linecap:butt;stroke-linejoin:miter;stroke-opacity:1;stroke-miterlimit:4;stroke-dasharray:none"
       id="path3824"
       inkscape:connector-curvature="0" />
  </g>
</svg>
