<?xml version="1.0" encoding="UTF-8" standalone="no"?>
<!-- Created with Inkscape (http://www.inkscape.org/) -->

<svg
   xmlns:dc="http://purl.org/dc/elements/1.1/"
   xmlns:cc="http://creativecommons.org/ns#"
   xmlns:rdf="http://www.w3.org/1999/02/22-rdf-syntax-ns#"
   xmlns:svg="http://www.w3.org/2000/svg"
   xmlns="http://www.w3.org/2000/svg"
   xmlns:sodipodi="http://sodipodi.sourceforge.net/DTD/sodipodi-0.dtd"
   xmlns:inkscape="http://www.inkscape.org/namespaces/inkscape"
   width="360"
   height="360"
   id="svg2"
   version="1.1"
   inkscape:version="0.48.2 r9819"
   sodipodi:docname="wasatch_embedded_vol_area_fractions.svg">
  <defs
     id="defs4">
    <marker
       inkscape:stockid="Arrow2Mstart"
       orient="auto"
       refY="0.0"
       refX="0.0"
       id="Arrow2Mstart"
       style="overflow:visible">
      <path
         id="path4042"
         style="font-size:12.0;fill-rule:evenodd;stroke-width:0.62500000;stroke-linejoin:round"
         d="M 8.7185878,4.0337352 L -2.2072895,0.016013256 L 8.7185884,-4.0017078 C 6.9730900,-1.6296469 6.9831476,1.6157441 8.7185878,4.0337352 z "
         transform="scale(0.6) translate(0,0)" />
    </marker>
    <marker
       inkscape:stockid="Arrow1Mend"
       orient="auto"
       refY="0.0"
       refX="0.0"
       id="Arrow1Mend"
       style="overflow:visible;">
      <path
         id="path4027"
         d="M 0.0,0.0 L 5.0,-5.0 L -12.5,0.0 L 5.0,5.0 L 0.0,0.0 z "
         style="fill-rule:evenodd;stroke:#000000;stroke-width:1.0pt;marker-start:none;"
         transform="scale(0.4) rotate(180) translate(10,0)" />
    </marker>
    <marker
       inkscape:stockid="Arrow1Lstart"
       orient="auto"
       refY="0.0"
       refX="0.0"
       id="Arrow1Lstart"
       style="overflow:visible">
      <path
         id="path4018"
         d="M 0.0,0.0 L 5.0,-5.0 L -12.5,0.0 L 5.0,5.0 L 0.0,0.0 z "
         style="fill-rule:evenodd;stroke:#000000;stroke-width:1.0pt;marker-start:none"
         transform="scale(0.8) translate(12.5,0)" />
    </marker>
    <marker
       inkscape:stockid="Arrow2Lend"
       orient="auto"
       refY="0.0"
       refX="0.0"
       id="Arrow2Lend"
       style="overflow:visible;">
      <path
         id="path4039"
         style="font-size:12.0;fill-rule:evenodd;stroke-width:0.62500000;stroke-linejoin:round;"
         d="M 8.7185878,4.0337352 L -2.2072895,0.016013256 L 8.7185884,-4.0017078 C 6.9730900,-1.6296469 6.9831476,1.6157441 8.7185878,4.0337352 z "
         transform="scale(1.1) rotate(180) translate(1,0)" />
    </marker>
    <marker
       inkscape:stockid="Arrow1Lend"
       orient="auto"
       refY="0.0"
       refX="0.0"
       id="Arrow1Lend"
       style="overflow:visible;">
      <path
         id="path4021"
         d="M 0.0,0.0 L 5.0,-5.0 L -12.5,0.0 L 5.0,5.0 L 0.0,0.0 z "
         style="fill-rule:evenodd;stroke:#000000;stroke-width:1.0pt;marker-start:none;"
         transform="scale(0.8) rotate(180) translate(12.5,0)" />
    </marker>
    <marker
       inkscape:stockid="Arrow2Mend"
       orient="auto"
       refY="0.0"
       refX="0.0"
       id="Arrow2Mend"
       style="overflow:visible;">
      <path
         id="path4045"
         style="font-size:12.0;fill-rule:evenodd;stroke-width:0.62500000;stroke-linejoin:round;"
         d="M 8.7185878,4.0337352 L -2.2072895,0.016013256 L 8.7185884,-4.0017078 C 6.9730900,-1.6296469 6.9831476,1.6157441 8.7185878,4.0337352 z "
         transform="scale(0.6) rotate(180) translate(0,0)" />
    </marker>
    <clipPath
       id="clipPath3462"
       clipPathUnits="userSpaceOnUse">
      <path
         id="path3464"
         d="M 0,0 148,0 148,75 0,75 0,0 z" />
    </clipPath>
    <clipPath
       id="clipPath3604"
       clipPathUnits="userSpaceOnUse">
      <path
         id="path3606"
         d="M 0,0 138,0 138,82 0,82 0,0 z" />
    </clipPath>
    <clipPath
       id="clipPath3727"
       clipPathUnits="userSpaceOnUse">
      <path
         id="path3729"
         d="m 0,0.1999512 103,0 0,25.8000498 -103,0 0,-25.8000498 z" />
    </clipPath>
    <clipPath
       id="clipPath3817"
       clipPathUnits="userSpaceOnUse">
      <path
         id="path3819"
         d="m 0,0.1999512 105,0 0,25.8000498 -105,0 0,-25.8000498 z" />
    </clipPath>
    <clipPath
       id="clipPath3907"
       clipPathUnits="userSpaceOnUse">
      <path
         id="path3909"
         d="M 0,0 263,0 263,82 0,82 0,0 z" />
    </clipPath>
    <clipPath
       id="clipPath4031"
       clipPathUnits="userSpaceOnUse">
      <path
         id="path4033"
         d="M 0,0 103,0 103,26 0,26 0,0 z" />
    </clipPath>
    <clipPath
       id="clipPath4025"
       clipPathUnits="userSpaceOnUse">
      <path
         id="path4027-3"
         d="M 0,0.2 103,0.2 103,26 0,26 0,0.2 z" />
    </clipPath>
    <clipPath
       id="clipPath4094"
       clipPathUnits="userSpaceOnUse">
      <path
         id="path4096"
         d="M 0,0 148,0 148,75 0,75 0,0 z" />
    </clipPath>
    <clipPath
       id="clipPath4169"
       clipPathUnits="userSpaceOnUse">
      <path
         id="path4171"
         d="M 0,0 138,0 138,82 0,82 0,0 z" />
    </clipPath>
    <clipPath
       id="clipPath4250"
       clipPathUnits="userSpaceOnUse">
      <path
         id="path4252"
         d="M 0,0 105,0 105,26 0,26 0,0 z" />
    </clipPath>
    <clipPath
       id="clipPath4244"
       clipPathUnits="userSpaceOnUse">
      <path
         id="path4246"
         d="M 0,0.2 105,0.2 105,26 0,26 0,0.2 z" />
    </clipPath>
    <clipPath
       id="clipPath4484"
       clipPathUnits="userSpaceOnUse">
      <path
         id="path4486"
         d="M 0,0 32,0 32,11 0,11 0,0 z" />
    </clipPath>
    <clipPath
       id="clipPath4541"
       clipPathUnits="userSpaceOnUse">
      <path
         id="path4543"
         d="M 0,0 31,0 31,11 0,11 0,0 z" />
    </clipPath>
    <clipPath
       id="clipPath4598"
       clipPathUnits="userSpaceOnUse">
      <path
         id="path4600"
         d="M 0,0 32,0 32,11 0,11 0,0 z" />
    </clipPath>
    <clipPath
       id="clipPath4655"
       clipPathUnits="userSpaceOnUse">
      <path
         id="path4657"
         d="M 0,0 32,0 32,12 0,12 0,0 z" />
    </clipPath>
  </defs>
  <sodipodi:namedview
     id="base"
     pagecolor="#ffffff"
     bordercolor="#666666"
     borderopacity="1.0"
     inkscape:pageopacity="0.0"
     inkscape:pageshadow="2"
     inkscape:zoom="2.0501253"
     inkscape:cx="140.58337"
     inkscape:cy="194.27392"
     inkscape:document-units="px"
     inkscape:current-layer="layer1"
     showgrid="false"
     units="in"
     inkscape:window-width="1627"
     inkscape:window-height="1006"
     inkscape:window-x="1875"
     inkscape:window-y="139"
     inkscape:window-maximized="0"
     inkscape:object-paths="true"
     inkscape:object-nodes="true"
     inkscape:snap-intersection-paths="true"
     inkscape:snap-smooth-nodes="true"
     inkscape:snap-midpoints="true"
     inkscape:snap-nodes="true" />
  <metadata
     id="metadata7">
    <rdf:RDF>
      <cc:Work
         rdf:about="">
        <dc:format>image/svg+xml</dc:format>
        <dc:type
           rdf:resource="http://purl.org/dc/dcmitype/StillImage" />
        <dc:title></dc:title>
      </cc:Work>
    </rdf:RDF>
  </metadata>
  <g
     inkscape:label="Layer 1"
     inkscape:groupmode="layer"
     id="layer1"
     transform="translate(0,-692.35975)">
    <path
       style="fill:#61beff;fill-opacity:0.44927566;stroke:#000000;stroke-width:0.99999899px;stroke-linecap:butt;stroke-linejoin:miter;stroke-opacity:1"
       d="m 121.87445,697.98519 0,116.24989 116.24989,0 0,116.24988 116.24988,0 0,-232.49977 z"
       id="path3987"
       inkscape:connector-curvature="0" />
    <path
       d="m 5.6245713,697.98519 0,348.74971 M 121.87445,697.98519 l 0,348.74971 m 116.24989,-348.74971 0,348.74971 m 116.24988,-348.74971 0,348.74971 M 5.6245713,697.98519 l 348.7496487,0 M 5.6245713,814.23508 l 348.7496487,0 M 5.6245713,930.48496 l 348.7496487,0 M 5.6245713,1046.7349 l 348.7496487,0"
       style="fill:none;stroke:#000000;stroke-width:0.99999895pt;stroke-linecap:butt;stroke-linejoin:miter;stroke-opacity:1"
       id="path3983"
       inkscape:connector-curvature="0" />
    <rect
       style="fill:#4cc600;fill-opacity:0.45098039"
       id="rect4681"
       width="116.24989"
       height="116.24988"
       x="179.99939"
       y="814.23511" />
    <path
       sodipodi:type="arc"
       style="fill:#61beff;fill-opacity:0.4509804;stroke:#000000;stroke-width:0.69999999000000002;stroke-miterlimit:4;stroke-opacity:1;stroke-dasharray:none"
       id="path3989"
       sodipodi:cx="175"
       sodipodi:cy="179"
       sodipodi:rx="7"
       sodipodi:ry="7"
       d="m 182,179 c 0,3.86599 -3.13401,7 -7,7 -3.86599,0 -7,-3.13401 -7,-7 0,-3.86599 3.13401,-7 7,-7 3.86599,0 7,3.13401 7,7 z"
       transform="matrix(0.99999899,0,0,0.99999899,4.9995719,693.3602)" />
    <g
       transform="matrix(1.25,0,0,-1.25,130.50966,877.90304)"
       inkscape:label="latex-image-2"
       id="g4533">
      <g
         id="g4535" />
      <g
         id="g4537">
        <g
           clip-path="url(#clipPath4541)"
           id="g4539">
          <path
             id="path4545"
             style="fill:#000000;fill-opacity:1;fill-rule:nonzero;stroke:none"
             d="m 6.88398,6.43594 c 0,0.72695 -0.17812,1.619921 -1.34687,1.619921 -1.20313,0 -1.61992,-0.916801 -2.58594,-4.398051 -0.56133,0 -1.50312,0.15508 -1.50312,1.33633 0,1.9418 1.05,2.72969 1.05,2.87188 0,0.024999 -0.025,0.03593 -0.08399,0.03593 -0.11914,0 -1.751951,-1.21601 -1.751951,-3.325 C 0.662109,3.3 1.93711,2.68203 2.68906,2.68203 2.27188,1.09609 1.85508,0.476172 1.74688,0.333984 l 0.95312,0 0.59688,2.335936 c 2.16914,0 3.58828,1.82305 3.58828,3.76719 L 6.88398,6.43594 z M 6.53906,6.13789 c 0,-0.84687 -0.66718,-2.48008 -2.96914,-2.48008 l 0.22696,1.00235 c 0.56093,2.50273 1.49101,2.64687 1.83593,2.64687 0.68008,0 0.90625,-0.41719 0.90625,-1.16914"
             inkscape:connector-curvature="0" />
          <path
             id="path4547"
             style="fill:#000000;fill-opacity:1;fill-rule:nonzero;stroke:none"
             d="m 11.209,4.78281 -1.1692,0 0,-0.12695 c 0.2692,-0.025 0.3954,-0.10898 0.3954,-0.26875 0,-0.08399 -0.0172,-0.16914 -0.05,-0.25195 L 9.55195,1.95703 8.69609,4.10898 C 8.64414,4.22812 8.61914,4.34492 8.61914,4.41992 c 0,0.15196 0.0918,0.21094 0.38789,0.23594 l 0,0.12695 -1.64805,0 0,-0.12695 c 0.31993,-0.0168 0.37813,-0.1 0.76602,-0.9668 L 9.13281,1.27812 C 9.150001,1.22617 9.175,1.16914 9.2,1.10117 9.25195,0.9488279 9.30195,0.882031 9.351951,0.882031 c 0.049999,0 0.108989,0.108985 0.235939,0.419919 l 1.07501,2.69688 c 0.2441,0.57226 0.2949,0.63125 0.5473,0.65625 l 0,0.12695"
             inkscape:connector-curvature="0" />
          <path
             id="path4549"
             style="fill:#000000;fill-opacity:1;fill-rule:nonzero;stroke:none"
             d="m 22.1422,6.73398 0,0.66719 -6.1031,0 0,-0.66719 6.1031,0 z m 0,-2.41992 0,0.6668 -6.1031,0 0,-0.6668 6.1031,0"
             inkscape:connector-curvature="0" />
          <path
             id="path4551"
             style="fill:#000000;fill-opacity:1;fill-rule:nonzero;stroke:none"
             d="m 29.6691,10.8578 -2.1453,-1.083971 0,-0.166799 c 0.1422,0.058989 0.2731,0.10781 0.3223,0.13086 0.2141,0.083989 0.4168,0.13125 0.5359,0.13125 0.25,0 0.3578,-0.17812 0.3578,-0.56133 l 0,-5.39765 c 0,-0.39414 -0.0949,-0.66914 -0.2859,-0.775 C 28.2738,3.02695 28.109,2.99102 27.607,2.97891 l 0,-0.17774 3.291,0 0,0.17774 c -0.9421,0.01328 -1.1332,0.13125 -1.1332,0.70507 l 0,7.15192 -0.0949,0.0231"
             inkscape:connector-curvature="0" />
        </g>
      </g>
    </g>
    <rect
       y="872.36005"
       x="238.12434"
       height="116.24988"
       width="116.24989"
       id="rect4882"
       style="fill:#ff0000;fill-opacity:0.34299517" />
    <path
       transform="matrix(0.99999899,0,0,0.99999899,121.24947,693.36023)"
       d="m 182,179 a 7,7 0 1 1 -14,0 7,7 0 1 1 14,0 z"
       sodipodi:ry="7"
       sodipodi:rx="7"
       sodipodi:cy="179"
       sodipodi:cx="175"
       id="path3991"
       style="fill:#ffffff;fill-opacity:1;stroke:#000000;stroke-width:0.69999999;stroke-miterlimit:4;stroke-opacity:1;stroke-dasharray:none"
       sodipodi:type="arc" />
    <path
       sodipodi:type="arc"
       style="fill:#ffffff;fill-opacity:1;stroke:#000000;stroke-width:0.69999999;stroke-miterlimit:4;stroke-opacity:1;stroke-dasharray:none"
       id="path3997"
       sodipodi:cx="175"
       sodipodi:cy="179"
       sodipodi:rx="7"
       sodipodi:ry="7"
       d="m 182,179 a 7,7 0 1 1 -14,0 7,7 0 1 1 14,0 z"
       transform="matrix(0.99999899,0,0,0.99999899,121.24947,577.11029)" />
    <path
       transform="matrix(0.99999899,0,0,0.99999899,4.999574,577.11035)"
       d="m 182,179 a 7,7 0 1 1 -14,0 7,7 0 1 1 14,0 z"
       sodipodi:ry="7"
       sodipodi:rx="7"
       sodipodi:cy="179"
       sodipodi:cx="175"
       id="path3999"
       style="fill:#ffffff;fill-opacity:1;stroke:#000000;stroke-width:0.70000071;stroke-miterlimit:4;stroke-opacity:1;stroke-dasharray:none"
       sodipodi:type="arc" />
    <path
       transform="matrix(0.99999899,0,0,0.99999899,-111.25032,577.11029)"
       d="m 182,179 a 7,7 0 1 1 -14,0 7,7 0 1 1 14,0 z"
       sodipodi:ry="7"
       sodipodi:rx="7"
       sodipodi:cy="179"
       sodipodi:cx="175"
       id="path4001"
       style="fill:#61beff;fill-opacity:0.44927596;stroke:#000000;stroke-width:0.69999999;stroke-miterlimit:4;stroke-opacity:1;stroke-dasharray:none"
       sodipodi:type="arc" />
    <path
       sodipodi:type="arc"
       style="fill:#61beff;fill-opacity:0.44927596;stroke:#000000;stroke-width:0.69999999;stroke-miterlimit:4;stroke-opacity:1;stroke-dasharray:none"
       id="path4003"
       sodipodi:cx="175"
       sodipodi:cy="179"
       sodipodi:rx="7"
       sodipodi:ry="7"
       d="m 182,179 a 7,7 0 1 1 -14,0 7,7 0 1 1 14,0 z"
       transform="matrix(0.99999899,0,0,0.99999899,-111.25031,693.3602)" />
    <path
       transform="matrix(0.99999899,0,0,0.99999899,-111.25031,809.12233)"
       d="m 182,179 a 7,7 0 1 1 -14,0 7,7 0 1 1 14,0 z"
       sodipodi:ry="7"
       sodipodi:rx="7"
       sodipodi:cy="179"
       sodipodi:cx="175"
       id="path4005"
       style="fill:#61beff;fill-opacity:0.44927596;stroke:#000000;stroke-width:0.69999999;stroke-miterlimit:4;stroke-opacity:1;stroke-dasharray:none"
       sodipodi:type="arc" />
    <path
       sodipodi:type="arc"
       style="fill:#61beff;fill-opacity:0.44927596;stroke:#000000;stroke-width:0.69999999;stroke-miterlimit:4;stroke-opacity:1;stroke-dasharray:none"
       id="path4007"
       sodipodi:cx="175"
       sodipodi:cy="179"
       sodipodi:rx="7"
       sodipodi:ry="7"
       d="m 182,179 a 7,7 0 1 1 -14,0 7,7 0 1 1 14,0 z"
       transform="matrix(0.99999899,0,0,0.99999899,4.9995664,809.61017)" />
    <path
       transform="matrix(0.99999899,0,0,0.99999899,121.24945,809.61017)"
       d="m 182,179 a 7,7 0 1 1 -14,0 7,7 0 1 1 14,0 z"
       sodipodi:ry="7"
       sodipodi:rx="7"
       sodipodi:cy="179"
       sodipodi:cx="175"
       id="path4009"
       style="fill:#61beff;fill-opacity:0.44927596;stroke:#000000;stroke-width:0.69999999;stroke-miterlimit:4;stroke-opacity:1;stroke-dasharray:none"
       sodipodi:type="arc" />
    <g
       transform="matrix(1.25,0,0,-1.25,298.95703,863.81971)"
       inkscape:label="latex-image-1"
       id="g4476">
      <g
         id="g4478" />
      <g
         id="g4480">
        <g
           clip-path="url(#clipPath4484)"
           id="g4482">
          <path
             id="path4488"
             style="fill:#000000;fill-opacity:1;fill-rule:nonzero;stroke:none"
             d="m 6.88398,6.43594 c 0,0.72695 -0.17812,1.619921 -1.34687,1.619921 -1.20313,0 -1.61992,-0.916801 -2.58594,-4.398051 -0.56133,0 -1.50312,0.15508 -1.50312,1.33633 0,1.9418 1.05,2.72969 1.05,2.87188 0,0.024999 -0.025,0.03593 -0.08399,0.03593 -0.11914,0 -1.751951,-1.21601 -1.751951,-3.325 C 0.662109,3.3 1.93711,2.68203 2.68906,2.68203 2.27188,1.09609 1.85508,0.476172 1.74688,0.333984 l 0.95312,0 0.59688,2.335936 c 2.16914,0 3.58828,1.82305 3.58828,3.76719 L 6.88398,6.43594 z M 6.53906,6.13789 c 0,-0.84687 -0.66718,-2.48008 -2.96914,-2.48008 l 0.22696,1.00235 c 0.56093,2.50273 1.49101,2.64687 1.83593,2.64687 0.68008,0 0.90625,-0.41719 0.90625,-1.16914"
             inkscape:connector-curvature="0" />
          <path
             id="path4490"
             style="fill:#000000;fill-opacity:1;fill-rule:nonzero;stroke:none"
             d="m 11.209,4.78281 -1.1692,0 0,-0.12695 c 0.2692,-0.025 0.3954,-0.10898 0.3954,-0.26875 0,-0.08399 -0.0172,-0.16914 -0.05,-0.25195 L 9.55195,1.95703 8.69609,4.10898 C 8.64414,4.22812 8.61914,4.34492 8.61914,4.41992 c 0,0.15196 0.0918,0.21094 0.38789,0.23594 l 0,0.12695 -1.64805,0 0,-0.12695 c 0.31993,-0.0168 0.37813,-0.1 0.76602,-0.9668 L 9.13281,1.27812 C 9.150001,1.22617 9.175,1.16914 9.2,1.10117 9.25195,0.9488279 9.30195,0.882031 9.351951,0.882031 c 0.049999,0 0.108989,0.108985 0.235939,0.419919 l 1.07501,2.69688 c 0.2441,0.57226 0.2949,0.63125 0.5473,0.65625 l 0,0.12695"
             inkscape:connector-curvature="0" />
          <path
             id="path4492"
             style="fill:#000000;fill-opacity:1;fill-rule:nonzero;stroke:none"
             d="m 22.1422,6.73398 0,0.66719 -6.1031,0 0,-0.66719 6.1031,0 z m 0,-2.41992 0,0.6668 -6.1031,0 0,-0.6668 6.1031,0"
             inkscape:connector-curvature="0" />
          <path
             id="path4494"
             style="fill:#000000;fill-opacity:1;fill-rule:nonzero;stroke:none"
             d="m 29.2281,10.8578 c -0.6562,0 -1.1562,-0.2019 -1.598,-0.6187 C 26.9391,9.56992 26.4859,8.2 26.4859,6.80508 c 0,-1.29805 0.3942,-2.69414 0.9532,-3.36094 0.4418,-0.525 1.05,-0.81133 1.741,-0.81133 0.6078,0 1.1199,0.20313 1.55,0.62031 0.6918,0.65586 1.1437,2.0379 1.1437,3.48086 0,2.44414 -1.084,4.12302 -2.6449,4.12302 l -8e-4,8e-4 z M 29.1922,10.548 c 1.0019,0 1.5379,-1.34683 1.5379,-3.83902 0,-2.49101 -0.525,-3.76601 -1.55,-3.76601 -1.025,0 -1.55,1.275 -1.55,3.75508 0,2.52695 0.5379,3.84995 1.5629,3.84995"
             inkscape:connector-curvature="0" />
        </g>
      </g>
    </g>
    <g
       transform="matrix(1.25,0,0,-1.25,276.11092,955.97032)"
       inkscape:label="latex-image-4"
       id="g4647">
      <g
         id="g4649" />
      <g
         id="g4651">
        <g
           clip-path="url(#clipPath4655)"
           id="g4653">
          <path
             id="path4659"
             style="fill:#000000;fill-opacity:1;fill-rule:nonzero;stroke:none"
             d="m 6.88398,7.43594 c 0,0.72695 -0.17812,1.619921 -1.34687,1.619921 -1.20313,0 -1.61992,-0.916801 -2.58594,-4.398051 -0.56133,0 -1.50312,0.15508 -1.50312,1.33633 0,1.9418 1.05,2.72969 1.05,2.871879 0,0.025001 -0.025,0.035931 -0.08399,0.035931 -0.11914,0 -1.751951,-1.21601 -1.751951,-3.325 C 0.662109,4.3 1.93711,3.68203 2.68906,3.68203 2.27188,2.09609 1.85508,1.47617 1.74688,1.33398 l 0.95312,0 0.59688,2.33594 c 2.16914,0 3.58828,1.82305 3.58828,3.76719 L 6.88398,7.43594 z M 6.53906,7.13789 c 0,-0.84687 -0.66718,-2.48008 -2.96914,-2.48008 l 0.22696,1.00235 c 0.56093,2.50273 1.49101,2.64687 1.83593,2.64687 0.68008,0 0.90625,-0.41719 0.90625,-1.16914"
             inkscape:connector-curvature="0" />
          <path
             id="path4661"
             style="fill:#000000;fill-opacity:1;fill-rule:nonzero;stroke:none"
             d="m 11.1922,5.78281 -1.1344,0 0,-0.12695 c 0.2692,0 0.4031,-0.075 0.4031,-0.20898 0,-0.03399 -0.0078,-0.08399 -0.0328,-0.14376 L 9.61211,2.98281 8.644919,5.11016 C 8.59492,5.22891 8.56094,5.33789 8.56094,5.43008 c 0,0.15195 0.12695,0.20898 0.48789,0.22695 l 0,0.12695 -1.73086,0 0,-0.11914 C 7.53711,5.63203 7.68086,5.53984 7.74805,5.39609 L 8.70586,3.32891 8.730861,3.26211 8.85781,3.01016 C 9.09219,2.58984 9.226951,2.28711 9.226951,2.16016 9.226951,2.03516 9.03516,1.50508 8.89102,1.25195 8.773829,1.03281 8.58906,0.8738279 8.47109,0.8738279 c -0.05,0 -0.125,0.0171881 -0.208979,0.0589841 C 8.10312,0.991016 7.95898,1.025 7.81719,1.025 7.62305,1.025 7.45508,0.855859 7.45508,0.655078 c 0,-0.276953 0.26992,-0.487109 0.62187,-0.487109 0.56407,0 0.96719,0.471875 1.42188,1.680861 L 10.793,5.27891 c 0.109,0.26914 0.2019,0.35312 0.4031,0.37812 l 0,0.12695"
             inkscape:connector-curvature="0" />
          <path
             id="path4663"
             style="fill:#000000;fill-opacity:1;fill-rule:nonzero;stroke:none"
             d="m 22.1422,7.73398 0,0.66719 -6.1031,0 0,-0.66719 6.1031,0 z m 0,-2.41992 0,0.6668 -6.1031,0 0,-0.6668 6.1031,0"
             inkscape:connector-curvature="0" />
          <path
             id="path4665"
             style="fill:#000000;fill-opacity:1;fill-rule:nonzero;stroke:none"
             d="m 29.2281,11.8578 c -0.6562,0 -1.1562,-0.2019 -1.598,-0.6187 -0.691,-0.6692 -1.1442,-2.0391 -1.1442,-3.43402 0,-1.29805 0.3942,-2.69414 0.9532,-3.36094 0.4418,-0.525 1.05,-0.81133 1.741,-0.81133 0.6078,0 1.1199,0.20313 1.55,0.62031 0.6918,0.65586 1.1437,2.0379 1.1437,3.48086 0,2.44412 -1.084,4.12302 -2.6449,4.12302 l -8e-4,8e-4 z M 29.1922,11.548 c 1.0019,0 1.5379,-1.3468 1.5379,-3.83902 0,-2.49101 -0.525,-3.76601 -1.55,-3.76601 -1.025,0 -1.55,1.275 -1.55,3.75508 0,2.52695 0.5379,3.84995 1.5629,3.84995"
             inkscape:connector-curvature="0" />
        </g>
      </g>
    </g>
    <rect
       style="fill:#969696;fill-opacity:1;stroke:#000000;stroke-width:0.69999999000000002;stroke-miterlimit:4;stroke-opacity:1;stroke-dasharray:none"
       id="rect4880"
       width="13.657701"
       height="13.657701"
       x="231.29549"
       y="865.96796" />
    <g
       transform="matrix(1.25,0,0,-1.25,220.95319,859.37567)"
       inkscape:label="latex-image-3"
       id="g4590">
      <g
         id="g4592" />
      <g
         id="g4594">
        <g
           clip-path="url(#clipPath4598)"
           id="g4596">
          <path
             id="path4602"
             style="fill:#000000;fill-opacity:1;fill-rule:nonzero;stroke:none"
             d="m 6.88398,6.43594 c 0,0.72695 -0.17812,1.619921 -1.34687,1.619921 -1.20313,0 -1.61992,-0.916801 -2.58594,-4.398051 -0.56133,0 -1.50312,0.15508 -1.50312,1.33633 0,1.9418 1.05,2.72969 1.05,2.87188 0,0.024999 -0.025,0.03593 -0.08399,0.03593 -0.11914,0 -1.751951,-1.21601 -1.751951,-3.325 C 0.662109,3.3 1.93711,2.68203 2.68906,2.68203 2.27188,1.09609 1.85508,0.476172 1.74688,0.333984 l 0.95312,0 0.59688,2.335936 c 2.16914,0 3.58828,1.82305 3.58828,3.76719 L 6.88398,6.43594 z M 6.53906,6.13789 c 0,-0.84687 -0.66718,-2.48008 -2.96914,-2.48008 l 0.22696,1.00235 c 0.56093,2.50273 1.49101,2.64687 1.83593,2.64687 0.68008,0 0.90625,-0.41719 0.90625,-1.16914"
             inkscape:connector-curvature="0" />
          <path
             id="path4604"
             style="fill:#000000;fill-opacity:1;fill-rule:nonzero;stroke:none"
             d="m 9.53594,1 1.69106,0 0,0.12695 c -0.261,0 -0.4301,0.13399 -0.6891,0.50313 L 9.46094,3.27812 10.159,4.28594 c 0.159,0.22812 0.4109,0.36289 0.6801,0.36992 l 0,0.12695 -1.32816,0 0,-0.12695 C 9.76406,4.63906 9.84883,4.58906 9.84883,4.47188 9.84883,4.36992 9.74688,4.18594 9.53711,3.925 9.49609,3.875 9.394919,3.72305 9.28516,3.55508 L 9.16797,3.72383 C 8.93203,4.07695 8.78086,4.36289 8.78086,4.47188 c 0,0.11718 0.10898,0.17695 0.36328,0.18398 l 0,0.12695 -1.74102,0 0,-0.12695 0.07696,0 c 0.25195,0 0.38594,-0.10898 0.64687,-0.50469 L 8.916019,2.94219 7.957809,1.55508 C 7.70586,1.21016 7.62188,1.15195 7.34414,1.12695 l 0,-0.12695 1.21875,0 0,0.12695 c -0.23398,0 -0.335939,0.04219 -0.335939,0.15196 0,0.05 0.058989,0.175 0.16914,0.34414 L 9.060161,2.65703 9.82383,1.48008 C 9.85781,1.42812 9.87617,1.37812 9.87617,1.32812 9.87617,1.17617 9.81719,1.14219 9.53906,1.12617 l 0,-0.1273421"
             inkscape:connector-curvature="0" />
          <path
             id="path4606"
             style="fill:#000000;fill-opacity:1;fill-rule:nonzero;stroke:none"
             d="m 22.1422,6.73398 0,0.66719 -6.1031,0 0,-0.66719 6.1031,0 z m 0,-2.41992 0,0.6668 -6.1031,0 0,-0.6668 6.1031,0"
             inkscape:connector-curvature="0" />
          <path
             id="path4608"
             style="fill:#000000;fill-opacity:1;fill-rule:nonzero;stroke:none"
             d="m 29.2281,10.8578 c -0.6562,0 -1.1562,-0.2019 -1.598,-0.6187 C 26.9391,9.56992 26.4859,8.2 26.4859,6.80508 c 0,-1.29805 0.3942,-2.69414 0.9532,-3.36094 0.4418,-0.525 1.05,-0.81133 1.741,-0.81133 0.6078,0 1.1199,0.20313 1.55,0.62031 0.6918,0.65586 1.1437,2.0379 1.1437,3.48086 0,2.44414 -1.084,4.12302 -2.6449,4.12302 l -8e-4,8e-4 z M 29.1922,10.548 c 1.0019,0 1.5379,-1.34683 1.5379,-3.83902 0,-2.49101 -0.525,-3.76601 -1.55,-3.76601 -1.025,0 -1.55,1.275 -1.55,3.75508 0,2.52695 0.5379,3.84995 1.5629,3.84995"
             inkscape:connector-curvature="0" />
        </g>
      </g>
    </g>
    <rect
       y="429.75031"
       x="867.53247"
       height="13.657701"
       width="13.657701"
       id="rect4884"
       style="fill:#969696;fill-opacity:1;stroke:#000000;stroke-width:0.69999999;stroke-miterlimit:4;stroke-opacity:1;stroke-dasharray:none"
       transform="matrix(0.69690584,0.71716264,-0.71716264,0.69690584,0,0)" />
  </g>
</svg>
