/* XPM */
static const char *SCIRun_logo[] = {
/* width height num_colors chars_per_pixel */
"   179    41      256            2",
/* colors */
".. c #040207",
".# c #7c8383",
".a c #43444b",
".b c #3c0274",
".c c #242429",
".d c #606468",
".e c #bac4c7",
".f c #09024e",
".g c #64467c",
".h c #9da2a3",
".i c #3e255e",
".j c #240249",
".k c #5d2f8f",
".l c #7f63a5",
".m c #402571",
".n c #50447c",
".o c #9789a1",
".p c #271448",
".q c #14131e",
".r c #413477",
".s c #dbe4ec",
".t c #abb3b2",
".u c #2b245f",
".v c #6c7377",
".w c #64428e",
".x c #7d7682",
".y c #525458",
".z c #1c0339",
".A c #1a1547",
".B c #6a658e",
".C c #94959b",
".D c #28146a",
".E c #66558d",
".F c #cad4da",
".G c #5b557d",
".H c #343438",
".I c #4f3475",
".J c #090227",
".K c #8c9496",
".L c #3d3545",
".M c #180247",
".N c #28036d",
".O c #8075a1",
".P c #9995ba",
".Q c #2c2436",
".R c #a2a4c4",
".S c #504492",
".T c #8884a6",
".U c #544565",
".V c #512587",
".W c #bcb5c6",
".X c #241537",
".Y c #6c656f",
".Z c #7c52a8",
".0 c #3c146a",
".1 c #e4f3f4",
".2 c #170269",
".3 c #291c47",
".4 c #685c8d",
".5 c #31234d",
".6 c #ccc2dc",
".7 c #51348c",
".8 c #40345f",
".9 c #85848a",
"#. c #4a4467",
"## c #342f64",
"#a c #2a1d66",
"#b c #120c28",
"#c c #290c72",
"#d c #4c1982",
"#e c #b3b4cf",
"#f c #c1c4d7",
"#g c #585b5c",
"#h c #d4d3dc",
"#i c #1a1430",
"#j c #8d75b5",
"#k c #726c92",
"#l c #949b9c",
"#m c #ada5c7",
"#n c #0e0b17",
"#o c #3f2d73",
"#p c #514b77",
"#q c #684b90",
"#r c #40137b",
"#s c #423b73",
"#t c #2a237e",
"#u c #868c8b",
"#v c #7d6d97",
"#w c #7d7d82",
"#x c #170b4a",
"#y c #a498be",
"#z c #e4e5f1",
"#A c #747b7b",
"#B c #a3acae",
"#C c #544b95",
"#D c #6d6c72",
"#E c #646476",
"#F c #250c47",
"#G c #140331",
"#H c #341c56",
"#I c #3d2c50",
"#J c #7f7b9f",
"#K c #4c2b79",
"#L c #745c9a",
"#M c #322b4a",
"#N c #4f3d8e",
"#O c #4b4c52",
"#P c #9485af",
"#Q c #b4bbc2",
"#R c #341475",
"#S c #411c7e",
"#T c #5f3d93",
"#U c #5c5463",
"#V c #1c156b",
"#W c #74549b",
"#X c #3d3c40",
"#Y c #2d2d30",
"#Z c #423b5b",
"#0 c #d5dce1",
"#1 c #341458",
"#2 c #34026e",
"#3 c #f4f2f4",
"#4 c #14061c",
"#5 c #c1ccca",
"#6 c #64585c",
"#7 c #5c4479",
"#8 c #1c1c23",
"#9 c #74659e",
"a. c #5b5399",
"a# c #554d57",
"aa c #bebdc9",
"ab c #342f85",
"ac c #655879",
"ad c #74757a",
"ae c #7446a4",
"af c #744b99",
"ag c #8c6bac",
"ah c #1c0d2b",
"ai c #8c8baa",
"aj c #241e2a",
"ak c #8c7bb6",
"al c #adabbf",
"am c #978cb7",
"an c #0b0266",
"ao c #342463",
"ap c #343250",
"aq c #8c92a6",
"ar c #ecf5f6",
"as c #342581",
"at c #3f0d79",
"au c #dcebef",
"av c #5c5c74",
"aw c #503c75",
"ax c #9a9cba",
"ay c #a4acc4",
"az c #7d5ea3",
"aA c #3e1c62",
"aB c #170d73",
"aC c #cdcddb",
"aD c #4b4d5e",
"aE c #b4bbd1",
"aF c #c3ccdc",
"aG c #1c1b32",
"aH c #e4edf3",
"aI c #5c5c94",
"aJ c #aca5af",
"aK c #b4b5bf",
"aL c #a492a4",
"aM c #341d70",
"aN c #340c76",
"aO c #a49da8",
"aP c #8c7c90",
"aQ c #340e5c",
"aR c #fcfefc",
"aS c #646b75",
"aT c #4c454f",
"aU c #242341",
"aV c #c4c6c4",
"aW c #1c1523",
"aX c #3e3288",
"aY c #67449e",
"aZ c #7c7492",
"a0 c #535465",
"a1 c #69539d",
"a2 c #706680",
"a3 c #685b9e",
"a4 c #4c3664",
"a5 c #868495",
"a6 c #736dab",
"a7 c #3f2e85",
"a8 c #5c4d78",
"a9 c #684b9d",
"b. c #443d8b",
"b# c #816dab",
"ba c #acadb3",
"bb c #5c4b97",
"bc c #502d89",
"bd c #6c3e94",
"be c #4c3e64",
"bf c #d7deee",
"bg c #574c67",
"bh c #988e90",
"bi c #1c1a4f",
"bj c #ccdae1",
"bk c #a49eb8",
"bl c #645078",
"bm c #5c4493",
"bn c #747585",
"bo c #646a6b",
"bp c #5d368b",
"bq c #343a3e",
"br c #8c9a9a",
"bs c #2c2a80",
"bt c #655e72",
"bu c #070318",
"bv c #7c848e",
"bw c #a0a5ae",
"bx c #270259",
"by c #402481",
"bz c #2a1357",
"bA c #acb3bd",
"bB c #191356",
"bC c #6a64a2",
"bD c #9595a6",
"bE c #261476",
"bF c #ccd3e5",
"bG c #090238",
"bH c #180257",
"bI c #7e73ad",
"bJ c #8985b9",
"bK c #291c57",
"bL c #271d7c",
"bM c #110c35",
"bN c #5c5d67",
"bO c #999ca6",
"bP c #888d95",
"bQ c #807c8d",
"bR c #1a0c56",
"bS c #747b85",
"bT c #6e6d7d",
"bU c #260d57",
"bV c #3f2b62",
"bW c #807baf",
"bX c #9784be",
"bY c #bebdd6",
"bZ c #1c0b36",
"b0 c #261b39",
"b1 c #aeaccd",
"b2 c #2c2a60",
"b3 c #4f1e84",
"b4 c #645e64",
"b5 c #342a5c",
"b6 c #ecfaf7",
"b7 c #342a81",
"b8 c #968ea2",
"b9 c #a89ec6",
/* pixels */
".b.b#2bx.b#2#G....ah#G.z.jbu#K#j.Vaeae.Z#raY#d#r#rae#Rah................#R.waY#2aN.N#2aN.N.N.z.M.NbubU#G.Jbu.....I#S#raY#caY.N.7.N.N#Nbcbx.J...............nbXaY.2.7#S.N.7bH#N#G.J.J#c.M#x.J.Jbu....#NbEbm#Na7bH#c.M.M#N.2.2bGbu.Mas.2bHbH.f...B.Sb#.S.2.S.2bH.f.2.2bG.cbIbI#9bCa7bEan#c..a..2abb.as.2anana7.f.f.fbu.naI#Na6a6an...S#C#C#tananabananananananan.J##a.aR",
"aY.k.j.kbx#2.zb0#qaw.p.Q.....z.V#1#r#raz#r#1at#r#r#r.0.zah.laz#K#Wbx#S#4bVaYaYbp.N#2#T#T#2ag#Tbcbxbu..#n.X#7.mbubu#Ra9.N#r.N.N.N#r.N.7.M#G..#.ak.7bc#N.7bubx.N.7#c.N#N#c.2bHbH.M.J.....Q#i.3.5.E.Sbu.rbmbEbc#N.2bG.2.2.2bHbH.J.................r.Sb##N.2.2.2bbbH.f.2.J.ub.#jbC.2a7#V.2#V.J#sa3.SanbEbL.f.2anbb.fbu#ia6a6anab#VbEbM.qa.#C#tabb7an.fananan.f.fbGaGbCbCaV",
"bxae#2#2bp#2bubl#d.b.k#T.k#1..buaQ.0#r#dat#r#d.k#r.ZaN..#L#L#LbHby.I#r.Mbu.lbx.Nbc#2.N#T.N.N.N.M.....Ubcb##j.7#L..#GaN#RaN.M#xbxbxbx.N#G...Q#j#j#c#jaN#c#c#nbEaN.N#c.N.7.NbHbHbH..#IbJ#Pb##R.l.7.7bHbu.N.NaB.NbmbH#G#c#N.f.J..#M.Sb#bIa7.2b#bu#n#N.S.2aX#N.2a7#N.2.f..b..S.2aB.2an.2an.2.faj#Cas.fbL.f.2.f.fbGbu#b.Sa6bEana6anaIbEbu##a.aBaBan.fanan.f.fan.faGanb.b.#X",
"at.b.b.b.j#2..#W.Z.V#T.bbpamb#.y.a.U.kaY.0#1#r#rb3.4b0#M#Kbx.lbx#K#SbHbx.z..#2aY.N.N.Mbx.Nbx.8#..yam#L.gbX#K#T.N.J..#c.N#raAa1#cbHa1#G..#iakbXa9#xaN#caN#c#G#GaN.2#S.2#cb#.N.2bu...Nb#a7.7#N#caXbH.2.Mbu#c.N.S#N.2bHbma7bHbubu.Sb#bIbHbyaXas.4..#b.2bH.2aXa7#canbHbG#i.2byb.#NbC#NbEan.2#V..bLbLbyanbG.2an.fbu..b.#V.Sb..fanananb..A..anabanananabaBbL.f.f#nb.an#taX..",
".bat#2bx.j#Gb0bdbpazb9bfaH.s#zbY.WbfaC#hb1#T.k#r#far#O#K#K#q#K#W.N.NbxbH.M..bu.M.N#2#S.E.P.W.F#harbFbAbA#hbYb9#q#Rbu...N.N.TaH.N#r.z#MbObkbYbY.RaP.E#m#m.RaFbw.Rax#m#mb9a1bH#k#lbAaFaF.Wb1bJ.Pb9aiam.RaibnaZ.PbWambI.S#abU..#..7.S#9a7.2by.2.2.f..bu.fbH#c.fan.2.fbubVb..San.2.2#VanbIbHanbu.fana1anan.fbGbubuaX#Ca6ananana.a7.fb.anbu.Janan.fan.f.f.f.fbuababb..fb...",
"bx.b#2.j.j#4a4.Vag.xaKaHbY#W#vbV#7.Obw.e.s.1bN.xbf.s#D.Ibp#K#K.M#K.Nbx.N#2.M...z#1aiar#0baaK.s#m#PaZaw#q.4.Raaay.o.L#Y#4a3aH.1bubu..#Yb1#h.saraHac.x.s.saHararaH.sbFax.R#obubo#laraHaHb6arbfal.W.s#0#h#Q#haE#hbfaC#B.oaTaPbT.Pa3.7#c.2.2.2.2.2.2.p..bRbH.f.fbH.fbG..#C.S#NbIb7.2.fbE.2bLaB.J..anbGbGbu.......uaXan.S#Nanan.S#Vanan.f.J..bubGbGan.f.f.fbu#sbC#t.fan.f..",
"#G#4#G.j.j..#W.9aOaaac.0.j.z.Q#F.X#4...L#Oa#.a.9aCbY#M.X.ibx.M.M.N.N#G.N.MbG#G.d.1b6arau#0bT.p#i#G.J#G.J.J#G.X.L.H.Yb8bYa2bQal.p#bby#4.na9aMbT.d.abN.x.vbQbPbv.K.a.Jbu..bu#i#7#n#s.G.Kbr.KbP#uad#u.K.##.bu....#n#X.y.L.ybQ.PbtbQ.TbR.2bH.2#caB.M.fbu................#N#CbEb.bHbL#cbE#VaBbG.J.....cbMbKb2bW#bbB.San.Sa6b.bGanaban.fb7.JaU.n#YbububG.fbubiaban#Van.fan..",
"#7#1.X#4....aLbkbObh.p#4.zbZ.5.z#G.JaW.8.Q.a#X.a.H.y.QaW.Mbx.M.Vbx.MbxbH.N.JbD.Fauarau.h.H#4b0ah#i#G.i.M#G#G.zbu#M#X#Xa#.9bQa#.XbZ.IaM..a9bzbZaT#X#O.aa0#g#g.d.H..bu.q#b#I#GbH#b#M.8#Obo.d#g#g.y.d#g#Obu...q#i#i.Q#i#Y.L.H.H#X.La#a5a1bE.2.2.2.2.fbu#Z.7a6a6a3.2bL..#b.S.2.2an.2an.S.2bH.f..apa.bIbJab.2bG.B..b..2.f.2.2ananb.an.f.fbu#CbCaBbs#p#M....bGaban#V#Canan..",
".Vafat.V.b.x.C.6aabN.z#G#G.z.j.zbu#4a4#H.jbZ#Y#X#XbN.c#4.JbG.j#G.2.MbH#G.Mbk#QaFaH#Q.y#O#b..bu#G.z#G#G.M#G#G#G#G#GaT#ObN#XaTa#.J.J#G#H.J.3#rbbac.aaT.abNbS#A#A#Y#naj.L#G.Mao.i.M...M.4#5.v#A.v.v#A#A.y.....3aDbK#.bG.3#ga##g.a#O#X#X.###.2.2.2bH.f#iaXbb.2.2a7a7a7bz..bK#CaB#c#CaB.2ananbG#nbJ#CaXbIaXanaXanas..b.aB.fan.f.fan.f.fbu.nanaBaBb.bLanbCbi.....fan.fanan..",
".bbd.b#2.baCaaaC.y.L.zah.z.z#G#4..bV.i#7.j#1.3#M.Qboaj..#G#GbG.Mbx#r#K.M.P#z#fal#u.dbo#M#Gbu..bu.J#G#G.M.M#G.MbH.M.J#O.d.y#D.x#iah.p.pbH..bz#c#k#U#Y#M.#.K#l#l#Ybu#b.A.3bK.5.f.Mbuap.Eb6br#A#l.9#l.K.d...q#i.3bG.UbG#FbnbT.d#Dad.Y#X.a#ZbK.2.2bGbu.Sbb#NbE#N.2.2#Nan#n...2.M.f.f.2.2.f.f...MaXbEbHanan.2anaXanb2.A.f.2an.fan.f.fbGbMaIbs#Can.SaBbLan#V.f#8..bGan.f.f..",
"bx.V.Vbd#qal.e#D.HaTbubu#G#4#G...ibdbx#2.jbxbxaO#X.Q#8.....J.zbHbHbH.NbTaHaHaH.K.y#A.d#Gbububu..bu#GbU#K.M#G.z.N.Mbu#I#E.y.dav#n...J#GbxbHbua9bebY.9aT#M.K#B.h#Y..#b#4bZ.MbHbH#c.M...n.1#5#g#AbPbw.tbo#n#n.J.L.M.fbHbG.rbPbNbN#EbT#EbN.a.q.JbGbu.rbb#N#Na6aBb#ana6.2an...JanbE.2an.2.fbGbua..Sb.b.#NaXanan.f.fanbGbMan.fanbG.f.f#nb.aIananb.ananbLbCanaBbs.A.....J#t..",
".Vbdbxbx#v.haH.y.L.a#4..bu#Gbu#Hbp.k#2bxat#r.N.iaO.a#n....#G.J.MbH.M.I#5ar.1.K.d.v#u.Lbububububu..#Gbx.M.Mbx.M#2#G..awa2bv.d#Dbubu#G.3aMbc.J#GblaJ#ga##g.abv.#.c..#8aG.5.E.M.NbH.2..aDau#5#O.daSbS#A.y#n#4bu.AaMbH.2.2bHa5#E.y#D#ubPbv#E.cbu..b5bI#N#caB#NbHan.2.2.f.2bu....bububG.J.f..#Ca.bEan#Vb#anbEb..2.fan.fbubBbGan.fbG..b.a.#CaBaBaBananananbL.S.faB.f........",
".V.b#2.jakaabDaT#O#Y.q........a4at#q.b#r#2#2bx#2.G.d#8........bu.J.JaEaHaVbO.d#Abr#l#8..bu#4bu#Gbu..................#7bIa8bT.d#n..aW.p.z.Nbu...Y#0.x#Y.dbTaT#A.c#nbu#G.M.M.N.2.N.2.J.yb6.e#O#gad.Kad#O.....JbG.r#o.2.2bHaa.a#Ya0aS#u.K.##X....bMbHbEaB#N.2an.M.2aBbHan.JbMa.#sao#b.J....#ka.bL.2bEaX#V.fanan.f.f.fbu............#saIaBan.fbL#tanananaBaBbs.f.f.J#sa6..",
".V.b#2.b.O#0bO#g#w#w#8aWah.8#nbuafaf#2atatbxat.j#WaZaj....#I#MaAah.8.F.1.e#Obo#u.h.dbu..bubu.p#Gbu.Ub#b#b#bcb##K#c...8#TaM.B.a.....J#G#Gbu...nac#fbP#OaT.Ka#.y#Ybubububzbb.2.N.2.N.J.d.1.e#ObN.##l.Cbq..#b.J#GbHbH.MbHbHar#5.q#Yavbvbw#wap....#naw.Sa7#cbH.2.fa7.fbH.f..#C.2bLasasasbEbu.QanbEanana6bEan#N.fanbG.J..#.a6#ta6ab#n.qbL#CaB#V.fananbLan#V.fbG.fbG.qa6ab..",
"#2.bbd.b#maH#u#g#A.9#w#Y#I#1.j...5at.M#2.N.V#2#2#r#7#n...Q#F.Mbxb3bwbfbj#A.ab4.K.K.abu..bu#4#Gbu.Ubp#Lb#.Nbc.N.Nbx#1...MaNa8#Obu...J.Jbu...ibma8#EbT.y#D.y.d.L.c#nbubu#G.2.2.N.N.NbubQau.e.ybo.#br#l.a..#nbubG#G.2.2.2a7#zaC#O.c#Xa5bO#u.a..bu...JaBbHan.2anbG#c.2.f.J#Ma.a7#N.fbEasanbG...nbE.S.f.2#Vanan.2.f.J..#.a6aba7bC.fanbub2bL#t.Saxax.R.SaBanananbGbMa6b.a6..",
".b#2#2bxagar.K.dad.C#l.d#X#D.T.5..#2#2bx#2bx.Nbxbxbu..ah.5.zbV.N#Saa#f.e.y.d#D#u#w#Y..bubu.Jbu.5#Tbc.N.Nb#bc.Nbc.Nbc#bbZ.N.pbVbu...J.....UbH#T.o#U.H.y#Abnad.y.q...Q.J#G.MaM.N.2.M..amau.e#Obo.#br.K#X..bu.J#G.2bHbH.2bz.sar#O#O#O.y.hbr#Y..bu#n...4a##UaFaHaab1.h#vb8.Ba3an.2#z#0#fbA#QaFau.1.1aranaXbEan#s#f.C.sb6.1ar.1.1.sa6.f...Gbv.s.FbjbjaFax#pan.fbu#sa6a6.f..",
"bx#2#d#2a4ar.K#g.#br#BbOad#Y.xaa#Eaj.Nbxbd#2bxbx.z...X.i#I.z.0.mblaH#had#U#g.x.v.Yaj....bu...5#2#T.NaY.N.Nbx#T#S.N.Nbx..bH.N.M.M......#G#9.Nb#.TaV.L.H#D.9a5a##n..bub0.M.2.N.2#G.J#ia3aK#B#Obo#Abr.K.y.....J.JbHbH#c.2#parar#ObN#D#XbQaqbububu.J.JaW.Ga8#w.6bFbF.Pa##..P#N#Nana3.O#yaaaObkaKbFauarbLan.2an.qaDbOalaFaHb6arauara.#VaF#f.YaybYbD#E#DbSbO#J...fbCab.fb...",
"#4bu.z.z.z#0.t.y.v.C.taK#l#D.H#Ob8.xbl.0.N.j#2.M..bu#2.7.j.ibx.N#maH.s.y.d#UadbNa#.........X.I.N.N#T#T.Nbc.Naz.N.N.2#S#G#GbH#Gbu....b0#K#N#T#Tb1.sbT.HavbTbn#U.q..#4.J.MbH.NbHbH...8a1aJ#l.a.dad.C#l#X....bubGbHbHbHbHalbfbf.y.dadad.y#X....bubMbGbubGbG#X#O.a#X.L#Y#Y.H.Jan.2#tbE.5.y.L.H.L.a.a.ybu........##.Ba##g#g.y.y#O#O#M#g#Q#fbQ.a.a.a#Y#Y.a.aaDa0b.b.b.anb...",
"aw#1#4.5...a.F.a.a#A#l.t#Q#B.##X.y.a#wal.y#n......aQatbp.j.Nbx.jb9bf.e#O.d#A.Y#u.Y.........X#Lbxazbc.N.N.N.Nbc.N.Nbx.Nbu..buaWbV.mbu.L.NbHbc.Na6#f#waT#Dbt#g#O#8..bu#b.J.J.Jbu....#Rb#aO.C.H#g.##l.C#O..............#OaCbw#Q.d#A.K#B#Dbubu..bu.JbG.J.....Ybn#X#X.L#O#X#MbubGanbHan.f.xboa#.a#O#X#g#n.q.u.faj##.S.U#D.ybN.d.y.a.y.da0.J....#8.ya#.yaD#X.a.abGbs.fan.f..",
"b3.Vbdat.b...eb4.y#O.K.t#Q.e#B#w.a.aa0#X#DbQbl.lah.i#T.N#2.Nbp#2ay#0#u#gad#ubP#D#D#n..#bbu...M.N.N.M.N.M.N.N.Nbc.NbH#G..a8#jbmbcb#bH..bV.N.2bc.EbnaD.a.d#E.YbT#8....#b#8.p.5.mb#...S.O#fbk.H.y#A.Kbv.y....#b#Z.Ea7a3.1#0.6.yad.K#B#gbu....bubu.JbG..#Mb#.P#e.y.y#Dad#6.q.Jbu.fbBan.2aV.CbN.d#DbN.daG#n.J#..f...f#kal#Dbo.#adbo.a#n.J..bu#YapaTaD#D.d.y.abq#nbG.fanb...",
"atat.Vb3az.X.IbP.yb4#w#l#B.e.tbP.x.y.yaT.y#8acal#Kbu#1#2#2bxbxb3bQaK.v.d#A#l.had.dbu#nbub0bu..bU#2.N#S.N#2aNaN.N.N.M..bgbmbpaY#c.N.M#K..bz.NbHa4.o#w.abNbQadad#8...q.L#H.2.7.2.N.3bZ#9#fbT.HbN.##l.t.v.cbq#Da5#J#f.sau#5ba#gad#g#ibubu..bububu.Jbu#n#Na6#J#ebn#U.#bTavaj..bubGbGbHan#0aa#O.da0.d#ubu...Jbi.Ban..axax.9.v#u.#.9ap......#i#..fbP#Da0.Y.9.Ha##8..bG.f.f..",
"ae.j.Vbx.b.jb0.V.U.y.a.9.K#B#l#Qba.9bo#D#A.aaT.ybh#Hbu#Gb3bx#rbx.W.Y.y.d#w.K.h.K#D#n..ah#G.jah...M#2bxaNbc.N.N.N.M...G#j#T#T#jbI.N.7.Nao..bUbHbI.W#ubNadbTbnbo.q#n#4bGbUbH.2.N#N.2..a6#f#B.a.dbS#l.t#BbvbOarau#haCaraH#B.v.cbu.Jbu....bububu.Jbu..##.SbIbYbfaS#O#DbNbN.c..#bbGbG.f.2#0au.a.y#D#wbS....#i.3.uanbGbO#0ad.d#AbP#B.H....#naUap.Jax#0.y#u#BaS.d#8..bubG.f..",
"bdbd.b.b.b.j..#2.j.5#Y.v#A.K#l.t.t#BbObP.9#Dad.d.d#..L..#Fbp.N.N#0.W.c#O.v.CbO.KbS....#G#G.M#Kbu..bz.N.N.N.M.M.M..a8.N#r.7.N#T.N.N.N.N.N.M..#G#P.s#ua0bNaD#gav.c#n#b.Q.MbHa9.N.2.V.J#E.FbO#O.d.#.h#Bbrbq#AaF.eaE#BbPad.vad.a..bu..bububu.JbubG...J#NbI.2#m#e#..Hav.9#U#8..bububR.fbG#h.s#O#gbo.C#w.....Jbi.f#k.fbr.sbPbN.##l.K#Y....#bbib2#.ayaHbPbQ.CbQ#w.c....bu.f..",
".bat.j#2bx#2bu.z#d.0#G#Y.yadad#u#lbr.h#B#BbvbP.yaD#Yb0.J...z.NbxbAbY.y.a.##B#B#l#wbu..aW.z.M.N.Nbu....bu#G.Mbxbu.EbX#T.N#RaYbH.N.N.7bH.N.N.J...KbfbN.Hap.y.v#D.c..aWbM.ibE.N.2.7.M.N#Obfba#X.d.##l.t.v#b#b.#.v#O.a.d#A.K#B#B.q........bu.J.J..#nasb#.2bHaIbN.y#OaS#l.##8..bu.JbG.Jbu.1b6#ObNad#AbS.....J.J.uanan.R#f.9.d.##l.K#Y.....J#ib2aI#e.1#u.vbPbP.v.q..........",
"at#2.j#2.j.b.jah.V#d.j#4bu#Y.y.v#D.va5bPbDa5#.#Obt.d#Ububu.......KaC.d.9.C#5.t#l.#.....J.zbx.N.j#G.5#qa4.pah.....Ob3#R#T.7.N.NbxbH#T.N.M.M.J#MamacaD.HbNbQ#wbT.c..bubZa8.Ia1bHb#.2bHbgaHbO#X.y.d#D#u#w....bNbr.vbo.#.K.h.K.K#O.q.qaGbubu......##bI#N.2an.Eal.x#O#DbS.v#8.........q.8b6b6.y.d.dad.dbu#nbubG.fan.fax.1.K.d.##u#D.c..#nbMb2#aaBaxbFbQ#O.dbnap.q....#n.A..",
"#2.b#2#2.k.jbu................#8#O.d#DbS.x.LadaZ.PbP#AaW...Q#L.l#m#e#gad.h#5.t#l#w.c#n.J#G.zbHbxbu.7#T#LaNbxbybubu.NaN.N#j.7bxbH.N.N.N.7#G..a1blbhbt#O#D.#.K#w.c..bu.3.M.2.NbH#c#T.2bgar#Q#XbN.##lbabv#4bu#i#B.##A.K.tbhbO#u.d#YaG.J.n#a#tbH#b#s#c.2.2.2bWaF#A#g#AbPad#8....#i#Z#sbI.1.1.y.d#wbnad....bubMb5b..faq.1br#g.#adad#8...qapb2.fanax.sbS.y#U.Qa#.q....aU.f..",
"bx.j#2#1.gaj..#7agb#ag.l.0.U....#n.q.y#A#UaTaO.KbDbD.h#X..bV.E#Kb#aCaq#E.R.t.t.K#A.c..#G#G.zbx..#L#W#Ta9.Nbc.N.M..bz.NaNbxaN#R.NbcbH.7.Nbu#Mbpac#faS#X.dbP#l.#.c..bu.J.M.2bHbH.N.7bG#O.1.e#O.y.##l.Kadbu#b.J.XbAad.CbvbT.9.9bTaTaj.8.f.D.2.2.2#b.f.2.2.2a6aE.9.d.#bv#w#8..#nap.fan.2.1au.y.d#w#u#D.....J.J.fbG#bbv#hbv#g#g.y.d#8....apbMananax.1.K#g#OaT.d#8..#nbibi..",
"#d#2bx.I#hbNbV#rbdbd#2.k#2#W#F..bu.zbu#Yaj.y.haE#QbF.h.dbuahaAbxbxbjbwadavbr.t.9#Abq..ah#G.Mbu#x#T#Ta1.NaN.N.N.Nbu..bx.NbH.Nbx.M.2bx.N.M..by#S#9.sbP.y#wbv#u#A#8...J.Jao.M.NbHbH.2..avaHaV#O.yad.x.dbT..bu.J#Ga8#u#A.KbOba#u.9.d#Ob0#Ga7.2.2bHby.J.f.2bE.TaH#A.y#A#u#A.c#n#8.AbG.ranar.F.a.d.#bhaS....bubG.Jbu...nbD.#.yaSbQad#8.....JbibBaBaEbfbv#gaj#g#A.c..#n.Jb2..",
"#2.j.zaTaHb8bpag#2.w#2#T.katbcbu...j#GbZ#b.d#u#B#Q.Fbjad#nah.zbx#Kak#QbT#u.Cbw#w#A#X.....J#G#4aga9.N.Nbc.N#T#TbxaN...Q.M.NbH.NbH.z.M#G...5#N.M.o.1bP#gbS#l.KbT.c..bu#G.M#obH.2.M.Jbub9bj#Q.a#ga##AbObS..bu.JbG.M.t.yaTbQa5b8bv#w.v#ObM#a.rbH.2.2.2.J.M.fax#zbPbNbo.K#A.c..#8aG.fbHan#zaV#O#g#A.#.v....bububu..###U.ebP#O.abTa0#8......bi#VaBayau#ubq.Q.9.#.c#n.qbG.J..",
"......#YaFbt#G#7#2#T.k.b#2.z.k.j..#G.j.z.z#D.v#u#B.h#5.x.q#4#G.i.7bc#0.yaLbPalbQ.K#w..bubu..awbm.Vaz.N.N#2#T.Nbc.N.J....................#7a9#jax.1.K.d.dbPbPbS#8..bu.JbU#Gby.M#Gbu.S.Oar.t#X#O#Oa0bvbv.....J#G.M.D#U#X.y.9ba.e#Bbr.v#Y.fbH.2.f.2.2.2bu.f.R.e#u#g.va5#A#8..#baU.Manby#hb1.y.d#A#wbN..........bM#C.ObP#A#YaT#U.YaG....bubu.f.f.Rar.#aj#O.#.#.c...qbMbG..",
".laf.w.caKbw.Q.j.wbx#2.j#2bd.N.j#G.........a#Q.v.9.#.W.abu#bb0.z.N.N#ybQ.d.C.9.obv#O#n.......8aY#T.N#S#2azby.N.N.M.M#Mbyaz#L.O#S.2#r#S...la1.Nam.sbP#g.dbhbQ#A#8..bu.J.M.M.M.M...MakbmbD.y#Y#Y#6#E.9bn....#n.Jbu..bN#wb4bP.h.e#B.K#w.y#baobHas.2an.fbu...CaK.9.y#Abv#D#8..bu.J#xananaJ#f#O#X.H#g.L#n..#n.Abu#xbIal#E#D#Oad#w#w.c..bubu....bubO.1bN#8#Dbv#A.c..#nbG.f..",
"bpafbx.5bkbk#X#4.j.jat.b.N.bbxbx.z#I.l#r.0#9aabo.d.##Baj..bu#G.ibxat#rax.LboaqbP.y#g#X...Q..bu#Sa9.N.N.N.N.V.N#Tbx#G.Qaza1b1bfbY#r.2bc#G.A#9a9.Paa.v.y#D.KbP#A.c................#a.N#kbw.C.L.HbTbTbQa0......#bapbHb#aybN#D.K.tbA.h.K#D#X.J.f.M.f.2bG..#Z.P.F#u#gbS.KbN.q..bubM.fbH.faC#f#Y.a.d.Y.a....#bbMbG.JaB.Ta2bt#O.v.Kad.c..bu..#Ya6.GayaH.a#Y#A#ubo#8..bu.J.J..",
"#K#Kat.gaVbA#O.L.z.j.jbx#2at#dbx..azag.N#d#q#0.e.d#A.#bu..bu#4#1bx#rat#o#O.Q.ybTbwbP.d.qbu.i..#Gat.Nat.N.N.N.N#R.Nbu.Ma1.PaH#0bb.m.7.N.M..aN#Rax#0.K.d#Abr#l.#.q...q#i#HbHbc.2aW...N.Ebf#l.cbN#w.Kbw#O....#8#.bUbW#N.DbabN.vbP#BbA.hbP.vapbGbH.f.J..#n#oaEar#u#g#w.d#X#8..buaGbBanbGai.K#ObN.d#O.v..bububG.f.J#xai#fad#g.vbP#w.c.......r#JbIaE#f#Ya#.#.Kad.c..bu.JbG..",
".0#r#Saw.PbD#X#X#b.j.j#2#2.b#2.z.pb##d#2#2#mar#5bN#A.Q..buaW.J.i.I.jbxbx#7aTaja0bPbS.Ha##b.J.X...M#S.N.NaNbH.NbcbxbuaAb1bfaHa1aw#G#F.2.NbG.3#R#mar.K#g#w.K.Ka#.q#n#bbG.Mby.MbcaM...J.n#f.y.abo.##l#l.a..buaG.U.rbHaMbHa8ad#g.v.K.t#B.K#A#g#bbGbG..#b#C.fax.1bP#g.ybgbn.c..bu.A#x#N.r#Zaq.y.d#X.9bv....#b.A.fan..bJ#ea0#Obtadad#8.....c#pa6ab.Rba#X.d#A#l.#.c..bu.JbG..",
"#r#FaQ.3bPad#O.yaTaW.M.j.jbxbx..bpag.l#2#Tar#5.e.d#O......ahbZ.jbx.M.N.N..#U.Hajbt.abT#D.a.Q.z.....NbxbcaN.Mat.2.M#YbY#hbf.l#F#M.J.M.M.m.N..bHbY.F#u.d.vbN#Xb4.c..#8.X#H.M#Nb#.2.M...GbTb8.a.y#O.d.xbN...qb0.JbH.2.2.2.2.P.y#D.9aq#Q#Bbr#A.Hbu....aoaManb.#h#g.cav#wa5.abu...JbG.BbfbQaTaT.abQ.9.d.q...J.J.fanbGaSa2.y.LadbQbT#8....#M.B#V#tbYay.d#g.##l.v.c....bu.f..",
".0bp.MaQ.Lbe#8.c#8bu#G.zbxbx#4.paz.l.b#T#eau.sbP#Y#G......bu#4.M.0.N.j#GaWbpa8.caj#O.9#w#gbNaZ.p..bu.N.M.N.M#G#H#.bN#Mb0bx.ibG.X.8.M.M.M#7.Jav.s.s#u.a.c#Z.a#E.d#nbu.5bKa3.Nby.Na7#b.Lbhba.ybN#w.h.v.v#Y#n.JbG.MaMbH.2.2.M.q#n#naGaD#g.K#l#O.c...Jb7.f.f.f#Z#.#Y.dbD.d.xbNaSai#far#f.W#6.Q.dbO#ladbN.qbu.J.f.f.fbP#M.c.Q#X.a#8....#n#ZbBb.a6bf.had.v.KbP#A#Y..........",
"bc.Vbx#7bT.Y.L.a.a#Y#X#I.i.j...kbp.b.I#0aH.1bwaW#4#G........bubu.j#G.z..bp.0bp#F#8.c#D#D.9.v.v.e.Pad.a#O.#.9a2bQaJ.h#v#v.A.J.X.M.M#Gbz.5#k.eaH.1ba.H#X#D.x#u.a#Z#gad.G.E#9.2#S.S.OaL.Y#E.K.d#u.K.C#ubS#DbNax#kaw.2.N.2.2aM#M#O.c.c.Q.aajap#X#O.y#..f.f.f.f.uaJ#E#X#ZadbPad#u#fal#E#nbPa#.L#Xa5a5bP#AaS.ebGbB#J#faHaVaTaT.d#D.y#X.c.cbq.u#sapa0a2aS#u.Kbr#D#Y#8#8#n.u..",
"#T#1bx#q#z.C.q#8.a.y#6.ab1#h#w.xa2adai#h.s#vbZ#Gbubu....#n#I#I#Fbu#4....bVaY.Nbx.z#4#8aDaS#D.y#O#u.FbfaH.s#z#z.6.P.cb0.Xah.Jbz#G#F#Ibe.xai.F.s.oav#g#D#A.Y.vbt.y#O.dalbF#NbH.4bva2.x.TbtaDa0bTad.dboaS#Dbo.hbfbIbL#c.2.S#N.MbDbqbN#D#D#g.a#X.a.d.vbKbG.f.G.f.SbNa0.y.y#EbN#EaDap#GbG.L#X#Z.c.Hap.c#Y#n...J#pbfau.s#z.x.d.v#D#D#gav.aaU#V#fbw.9bT#Oboad#O#X.dbo#A.JbG..",
".0bU.M#LaaaD...qajbu#8#YaTbv.FauarbY#yb#.j.z.X#4bu#G.....pbebxb3#2#Tb3#bbubUbdbx.M.M.Jbu#n#8.H#Z.y.y.vbraxa5b5.3#G..#b#G#IbU#GbG#Gbz.M.2..#bbV#I.J.X#bbubu....bubu#n...J.MbH.2bHbH...3#ibMah.qbu........bu..bub0#o.2.2bHbHbu.n#Z#nbu..bu#n..bu.....AbG.f.fa..fbGaG.c.c.H.H.q#n#n#n.Jap.3....bu..........bu.J.fbu#bap#Mbu#nbu#n......bu.u#V.S#sbi#b.J#nbu........#bbG..",
"bzbzbxbxbx..#n#Yb0#4aW#n#4bu.Xbu....bu#Gahbubu.J#4bu..bu.ibx.N#T.V.Vb3aAbu#n#2#2.N.j.j#Gbu..........#iaj#baWahb0bu..#n.pbV#.#G#FbH.M#Gbu...5aj.X.Jbububu............bububu.J.M.M.Jbu#ib0aj.J#n..............bubu.J#G.2.MbG#nbma3.J..#n............bu.JbG#ab7bLbG.J........#n....bubu.JbG......bu..bububububG.J..bM.J.qbubu............#b#a#VbB#b#bbubu..........#nbu..",
".AaQ.Jbu..#n.Xa4#F.5b0b0.X#4#4ahbu....#4.J#G.j#Fbu..ahbebxbp.Nb3.V.N.N.N.N..#GaNbxbxbH.M.z.Jbu...q#4bu#b#b#4.J.X#G#G..bZ#Fbu.M#1.N#G#G...5.N.2bH.i.3#G.Jbu.Jbu..#4#Gbu#G#GbG.MbGbu#G.EbU.M.5b0.J.Jbubu...JbububGbG.M.M.fbu.5#N.S.rbebGbu.J.Jbubu#b..bubG.J.f.fbG.fbubu#n#nbububu.Jbu.J.J.J..bu.J#bbu.J.J.J.J..###s#tb5.faGaU.Jbu.Jbu..bu#xbB.A#VbBbMbMbu..buaG.J.qbi.."
};
