/* XPM */
static const char * insert_xpm[] = {
"16 13 6 1",
" 	c None",
".	c #1CCE31",
"+	c #1C40CE",
"@	c #C135CE",
"#	c #CEC635",
"$	c #516ACC",
".....           ",
".....    +++++  ",
".....    +++++  ",
".@...    +++++  ",
" @       +@+++  ",
" @        @     ",
" @ @@@@@@@@@    ",
" @@@       @    ",
" @@       #@### ",
"$@@$$     ##### ",
"$$$$$     ##### ",
"$$$$$     #@### ",
"$$$$$@@@@@@@    "};
