/* XPM */
static const char *load[]={
"22 22 5 1",
". c None",
"# c #303030",
"c c #848200",
"a c #ffff00",
"b c #ffffff",
"......................",
"......................",
"......................",
"......................",
"......................",
"......................",
"......................",
"######................",
"#abab##########.......",
"#babababababab#.......",
"#ababababababa#.......",
"#babababababab#.......",
"#ababab###############",
"#babab##cccccccccccc#.",
"#abab##cccccccccccc#..",
"#bab##cccccccccccc#...",
"#ab##cccccccccccc#....",
"#b##cccccccccccc#.....",
"###cccccccccccc#......",
"##cccccccccccc#.......",
"##############........",
"......................"};
