/* XPM */
static const char *info[]={
"22 22 3 1",
". c None",
"# c #5687c3",
"a c #dcdcdc",
"........#####.........",
".....##########.......",
"....#####aaa#####.....",
"...#####aaaaa#####....",
"..######aaaaa######...",
"..######aaaaa#######..",
".########aaa########..",
".###################..",
"#####aaaaaaaa########.",
"######aaaaaaa########.",
"########aaaaa########.",
"########aaaaa########.",
"########aaaaa########.",
"########aaaaa#######..",
".#######aaaaa#######..",
".#######aaaaa######...",
"..####aaaaaaaaa####...",
"...#aaaaaaaaaaaaa#....",
"....#############.....",
"......##########......",
"........#####.........",
"......................"};
