/* XPM */
static const char * addinfo_xpm[] = {
"16 13 11 1",
" 	c None",
".	c #ED15D7",
"+	c #D515C2",
"@	c #5F1558",
"#	c #A61597",
"$	c #77156D",
"%	c #BE15AD",
"&	c #191519",
"*	c #31152E",
"=	c #481543",
"-	c #8F1582",
"................",
"................",
"................",
"+@.........#$$%.",
"#&#........*@@$.",
"%@++##.#+.%&=%..",
"#&#.=&-@&+.&@...",
"#&#.@&.#&#.&@...",
"#&#.@&.#&#.&@...",
"#&#.@&.#&#.&@...",
"#&-.=&.-&#+&@...",
"%##+##+##%%##+..",
"................"};
